{"materials":[{"name":"metal01_Basecolor","pbrMetallicRoughness":{"baseColorTexture":{"index":0,"texCoord":0},"baseColorFactor":[1.0,1.0,1.0,1.0],"metallicFactor":0.75,"roughnessFactor":0.3},"alphaMode":"OPAQUE"},{"name":"Dec02_Basecolor","pbrMetallicRoughness":{"baseColorTexture":{"index":1,"texCoord":0},"baseColorFactor":[1.0,1.0,1.0,1.0],"metallicFactor":0.4,"roughnessFactor":0.3},"alphaMode":"OPAQUE"},{"name":"metal02_Basecolor","pbrMetallicRoughness":{"baseColorTexture":{"index":2,"texCoord":0},"baseColorFactor":[1.0,1.0,1.0,1.0],"metallicFactor":0.75,"roughnessFactor":0.3},"alphaMode":"OPAQUE"}],"images":[{"uri":"1CTA4NO38TUGF6UI76VPJWU5J2IPF0W4U.jpg"},{"uri":"P8573JNROZVYQDU2A0CMF2UM8T758ZOXO.jpg"},{"uri":"Z82H88O92NPONOET328EWD853T7M3P7RO.jpg"}],"textures":[{"name":"smd_1.jpg","sampler":0,"source":0},{"name":"smd_3_f_png.jpg","sampler":0,"source":1},{"name":"smd_2.jpg","sampler":0,"source":2}],"meshes":[{"name":"metal_cylinder","primitives":[{"material":0,"mode":4,"indices":0,"attributes":{"NORMAL":2,"POSITION":1,"TEXCOORD_0":3}}]},{"name":"辅助建筑_装饰一","primitives":[{"material":1,"mode":4,"indices":4,"attributes":{"NORMAL":6,"POSITION":5,"TEXCOORD_0":7}}]},{"name":"metal_cube","primitives":[{"material":2,"mode":4,"indices":8,"attributes":{"NORMAL":10,"POSITION":9,"TEXCOORD_0":11}}]}],"buffers":[{"byteLength":65363,"uri":"8UGQPK2390KQ9YUIH0OYU222WJ0T76SRQ.bin"}],"bufferViews":[{"buffer":0,"target":34963,"byteLength":5308,"byteOffset":0},{"buffer":0,"target":34962,"byteLength":6756,"byteOffset":5448},{"buffer":0,"target":34962,"byteLength":7092,"byteOffset":12204},{"buffer":0,"target":34962,"byteLength":4504,"byteOffset":19240},{"buffer":0,"target":34963,"byteLength":3352,"byteOffset":23744},{"buffer":0,"target":34962,"byteLength":8952,"byteOffset":27236},{"buffer":0,"target":34962,"byteLength":9288,"byteOffset":36188},{"buffer":0,"target":34962,"byteLength":5968,"byteOffset":45420},{"buffer":0,"target":34963,"byteLength":1228,"byteOffset":51388},{"buffer":0,"target":34962,"byteLength":4248,"byteOffset":52756},{"buffer":0,"target":34962,"byteLength":4584,"byteOffset":57004},{"buffer":0,"target":34962,"byteLength":2832,"byteOffset":61532}],"accessors":[{"componentType":5123,"type":"SCALAR","bufferView":0,"byteOffset":0,"byteType":1118,"count":2654},{"componentType":5126,"type":"VEC3","bufferView":1,"byteOffset":0,"byteType":1829,"count":563,"min":[-2.64426302909851,-4.51541948318481,-0.964345216751099],"max":[2.64426302909851,4.51541948318481,0.964345455169678]},{"componentType":5126,"type":"VEC3","bufferView":2,"byteOffset":0,"byteType":890,"count":591},{"componentType":5126,"type":"VEC2","bufferView":3,"byteOffset":0,"byteType":409,"count":563},{"componentType":5123,"type":"SCALAR","bufferView":4,"byteOffset":0,"byteType":363,"count":1676},{"componentType":5126,"type":"VEC3","bufferView":5,"byteOffset":0,"byteType":725,"count":746,"min":[-2.84295320510864,-4.28582859039307,3.04907941818237],"max":[2.84295320510864,4.28582859039307,11.3062343597412]},{"componentType":5126,"type":"VEC3","bufferView":6,"byteOffset":0,"byteType":595,"count":774},{"componentType":5126,"type":"VEC2","bufferView":7,"byteOffset":0,"byteType":299,"count":746},{"componentType":5123,"type":"SCALAR","bufferView":8,"byteOffset":0,"byteType":448,"count":614},{"componentType":5126,"type":"VEC3","bufferView":9,"byteOffset":0,"byteType":239,"count":354,"min":[-1.93066215515137,-3.25375652313232,6.891197681427],"max":[1.93066215515137,3.25375652313232,12.3614339828491]},{"componentType":5126,"type":"VEC3","bufferView":10,"byteOffset":0,"byteType":1171,"count":382},{"componentType":5126,"type":"VEC2","bufferView":11,"byteOffset":0,"byteType":529,"count":354}],"nodes":[{"name":"RootNode","translation":[0.0,0.0,0.0],"rotation":[0.0,0.0,0.0,1.0],"scale":[1.0,1.0,1.0],"children":[1,2,3]},{"name":"metal_cylinder","translation":[-0.487338304519653,4.296875,-0.170804500579834],"rotation":[-0.70710676908493,0.0,0.0,0.70710676908493],"scale":[1.0,1.0,1.0],"mesh":0},{"name":"辅助建筑_装饰一","translation":[0.288648128509521,0.0,0.400393486022949],"rotation":[-0.70710676908493,0.0,0.0,0.70710676908493],"scale":[1.0,1.0,1.0],"mesh":1},{"name":"metal_cube","translation":[-0.760730743408203,0.0,-0.768023490905762],"rotation":[-0.70710676908493,0.0,0.0,0.70710676908493],"scale":[1.0,1.0,1.0],"mesh":2}],"asset":{"generator":"FBX2glTF","version":"2.0"},"scene":0,"scenes":[{"name":"Root Scene","nodes":[0]}],"samplers":[{}]}
