{"materials":[{"name":"metal01_Basecolor","pbrMetallicRoughness":{"baseColorTexture":{"index":0,"texCoord":0},"baseColorFactor":[1.0,1.0,1.0,1.0],"metallicFactor":0.75,"roughnessFactor":0.3},"alphaMode":"OPAQUE"},{"name":"Dec02_Basecolor","pbrMetallicRoughness":{"baseColorTexture":{"index":1,"texCoord":0},"baseColorFactor":[1.0,1.0,1.0,1.0],"metallicFactor":1.0,"roughnessFactor":0.3},"alphaMode":"OPAQUE"}],"images":[{"uri":"7D04APIPOD6UCZ675Z2KTJ61TTJKCUNQE.jpg"},{"uri":"AD87C9PVT92QC1N05J0QCQDVX17U2FJQP.jpg"}],"textures":[{"name":"smd_2.jpg","sampler":0,"source":0},{"name":"smd_1_f_png.jpg","sampler":0,"source":1}],"meshes":[{"name":"metal_cylinder","primitives":[{"material":0,"mode":4,"indices":0,"attributes":{"NORMAL":2,"POSITION":1,"TEXCOORD_0":3}}]},{"name":"辅助建筑_装饰二","primitives":[{"material":1,"mode":4,"indices":4,"attributes":{"NORMAL":6,"POSITION":5,"TEXCOORD_0":7}}]}],"buffers":[{"byteLength":27135,"uri":"J6D0OUY748W2GTU82AWQ43DOO3NUCAN0T.bin"}],"bufferViews":[{"buffer":0,"target":34963,"byteLength":4064,"byteOffset":0},{"buffer":0,"target":34962,"byteLength":7140,"byteOffset":4236},{"buffer":0,"target":34962,"byteLength":7500,"byteOffset":11376},{"buffer":0,"target":34962,"byteLength":4784,"byteOffset":18832},{"buffer":0,"target":34963,"byteLength":236,"byteOffset":23616},{"buffer":0,"target":34962,"byteLength":732,"byteOffset":23964},{"buffer":0,"target":34962,"byteLength":888,"byteOffset":24696},{"buffer":0,"target":34962,"byteLength":552,"byteOffset":25584}],"accessors":[{"componentType":5123,"type":"SCALAR","bufferView":0,"byteOffset":0,"byteType":338,"count":2032},{"componentType":5126,"type":"VEC3","bufferView":1,"byteOffset":0,"byteType":391,"count":595,"min":[-0.774757385253906,-2.62593841552734,-6.27450518209116E-08],"max":[0.774755477905273,2.62594032287598,5.51085376739502]},{"componentType":5126,"type":"VEC3","bufferView":2,"byteOffset":0,"byteType":1584,"count":625},{"componentType":5126,"type":"VEC2","bufferView":3,"byteOffset":0,"byteType":1105,"count":598},{"componentType":5123,"type":"SCALAR","bufferView":4,"byteOffset":0,"byteType":381,"count":118},{"componentType":5126,"type":"VEC3","bufferView":5,"byteOffset":0,"byteType":719,"count":61,"min":[-3.14137935638428,-1.83824443817139,3.04907941818237],"max":[3.14137935638428,1.83824443817139,5.23374605178833]},{"componentType":5126,"type":"VEC3","bufferView":6,"byteOffset":0,"byteType":807,"count":74},{"componentType":5126,"type":"VEC2","bufferView":7,"byteOffset":0,"byteType":1427,"count":69}],"nodes":[{"name":"RootNode","translation":[0.0,0.0,0.0],"rotation":[0.0,0.0,0.0,1.0],"scale":[1.0,1.0,1.0],"children":[1,2]},{"name":"metal_cylinder","translation":[-1.58026123046875,0.0,0.0],"rotation":[-0.70710676908493,0.0,0.0,0.70710676908493],"scale":[1.0,1.0,1.0],"mesh":0},{"name":"辅助建筑_装饰二","translation":[0.0,0.0,-0.38176441192627],"rotation":[-0.70710676908493,0.0,0.0,0.70710676908493],"scale":[1.0,1.0,1.0],"mesh":1}],"asset":{"generator":"FBX2glTF","version":"2.0"},"scene":0,"scenes":[{"name":"Root Scene","nodes":[0]}],"samplers":[{}]}
