{"materials":[{"name":"metal01_Basecolor","pbrMetallicRoughness":{"baseColorTexture":{"index":0,"texCoord":0},"baseColorFactor":[1.0,1.0,1.0,1.0],"metallicFactor":0.75,"roughnessFactor":0.3},"alphaMode":"OPAQUE"},{"name":"Dec02_Basecolor","pbrMetallicRoughness":{"baseColorTexture":{"index":1,"texCoord":0},"baseColorFactor":[1.0,1.0,1.0,1.0],"metallicFactor":0.75,"roughnessFactor":0.3},"alphaMode":"OPAQUE"}],"images":[{"uri":"7D04APIPOD6UCZ675Z2KTJ61TTJKCUNQE.jpg"},{"uri":"OW1MQJCRANWXEDJ85EUSRQN2GTWWG8D1M.jpg"}],"textures":[{"name":"smd_2.jpg","sampler":0,"source":0},{"name":"smd_1_f_png.jpg","sampler":0,"source":1}],"meshes":[{"name":"metal_cylinder","primitives":[{"material":0,"mode":4,"indices":0,"attributes":{"NORMAL":2,"POSITION":1,"TEXCOORD_0":3}}]},{"name":"园区装饰三","primitives":[{"material":1,"mode":4,"indices":4,"attributes":{"NORMAL":6,"POSITION":5,"TEXCOORD_0":7}}]}],"buffers":[{"byteLength":12219,"uri":"E4S2Z7KMFW7TAPI5DWNV41TOD947RUYI4.bin"}],"bufferViews":[{"buffer":0,"target":34963,"byteLength":1160,"byteOffset":0},{"buffer":0,"target":34962,"byteLength":2292,"byteOffset":1212},{"buffer":0,"target":34962,"byteLength":2436,"byteOffset":3504},{"buffer":0,"target":34962,"byteLength":1504,"byteOffset":5920},{"buffer":0,"target":34963,"byteLength":496,"byteOffset":7424},{"buffer":0,"target":34962,"byteLength":1068,"byteOffset":8072},{"buffer":0,"target":34962,"byteLength":1356,"byteOffset":9140},{"buffer":0,"target":34962,"byteLength":752,"byteOffset":10468}],"accessors":[{"componentType":5123,"type":"SCALAR","bufferView":0,"byteOffset":0,"byteType":1641,"count":580},{"componentType":5126,"type":"VEC3","bufferView":1,"byteOffset":0,"byteType":1767,"count":191,"min":[-1.72916603088379,-1.72916555404663,-0.371228218078613],"max":[1.72916603088379,1.72916555404663,0.371228456497192]},{"componentType":5126,"type":"VEC3","bufferView":2,"byteOffset":0,"byteType":1672,"count":203},{"componentType":5126,"type":"VEC2","bufferView":3,"byteOffset":0,"byteType":737,"count":188},{"componentType":5123,"type":"SCALAR","bufferView":4,"byteOffset":0,"byteType":633,"count":248},{"componentType":5126,"type":"VEC3","bufferView":5,"byteOffset":0,"byteType":643,"count":89,"min":[-1.63192558288574,-1.63192558288574,0.0],"max":[1.63192558288574,1.63192558288574,4.42100429534912]},{"componentType":5126,"type":"VEC3","bufferView":6,"byteOffset":0,"byteType":612,"count":113},{"componentType":5126,"type":"VEC2","bufferView":7,"byteOffset":0,"byteType":1909,"count":94}],"nodes":[{"name":"RootNode","translation":[0.0,0.0,0.0],"rotation":[0.0,0.0,0.0,1.0],"scale":[1.0,1.0,1.0],"children":[1,2]},{"name":"metal_cylinder","translation":[0.0,3.11273384094238,0.0],"rotation":[-0.70710676908493,0.0,0.0,0.70710676908493],"scale":[1.0,1.0,1.0],"mesh":0},{"name":"园区装饰三","translation":[0.009521484375,0.0,0.0],"rotation":[-0.70710676908493,0.0,0.0,0.70710676908493],"scale":[1.0,1.0,1.0],"mesh":1}],"asset":{"generator":"FBX2glTF","version":"2.0"},"scene":0,"scenes":[{"name":"Root Scene","nodes":[0]}],"samplers":[{}]}
