{"materials":[{"name":"Pedestal_Basecolor","pbrMetallicRoughness":{"baseColorTexture":{"index":0,"texCoord":0},"baseColorFactor":[1.0,1.0,1.0,1.0],"metallicFactor":0.19,"roughnessFactor":0.7},"alphaMode":"OPAQUE"},{"name":"05_-_Default_重复24_alpha","pbrMetallicRoughness":{"baseColorTexture":{"index":1,"texCoord":0,"extensions":{"textureExtensions":[{"index":1,"texCoord":0,"extensions":{"multiFramesAnim":{"animSpeed":30.0,"tilesX":10,"tilesY":5}}}]}},"baseColorFactor":[1.0,1.0,1.0,1.0],"metallicFactor":0.009999992,"roughnessFactor":1},"alphaMode":"BLEND","emissiveFactor":[0.0,0.0,0.0,1.0],"emissiveTexture":{"index":1,"texCoord":0,"extensions":{"textureExtensions":[{"index":1,"texCoord":0,"extensions":{"multiFramesAnim":{"animSpeed":30.0,"tilesX":10,"tilesY":5}}}]}},"doubleSided":true},{"name":"Body_Basecolor","pbrMetallicRoughness":{"baseColorTexture":{"index":2,"texCoord":0},"baseColorFactor":[1.0,1.0,1.0,1.0],"metallicFactor":0.9,"roughnessFactor":0.25},"alphaMode":"OPAQUE"},{"name":"Metal_Basecolor","pbrMetallicRoughness":{"baseColorFactor":[0.05882353,0.05882353,0.05882353,1.0],"metallicFactor":0.099999994,"roughnessFactor":0.6},"alphaMode":"OPAQUE"}],"images":[{"uri":"073XJNKP8WSOHPWP322GA812921P3UNQJ.jpg"},{"uri":"YUGHTWEWNSQATI3GOD72TJ8E8TWT12UT8.png"},{"uri":"67M8U1EU3DNQU2CO342QF782HTOOA715U.jpg"}],"textures":[{"name":"smd_1_f_png.jpg","sampler":0,"source":0},{"name":"smd_2_com.png","sampler":0,"source":1},{"name":"smd_3.jpg","sampler":0,"source":2}],"meshes":[{"name":"基座","primitives":[{"material":0,"mode":4,"indices":0,"attributes":{"NORMAL":2,"POSITION":1,"TEXCOORD_0":3,"TEXCOORD_1":4}}]},{"name":"对象005","primitives":[{"material":1,"mode":4,"indices":5,"attributes":{"COLOR_0":8,"NORMAL":7,"POSITION":6,"TEXCOORD_0":9,"TEXCOORD_1":10}}]},{"name":"旗杆","primitives":[{"material":2,"mode":4,"indices":11,"attributes":{"NORMAL":13,"POSITION":12,"TEXCOORD_0":14,"TEXCOORD_1":15}}]},{"name":"底座","primitives":[{"material":3,"mode":4,"indices":16,"attributes":{"NORMAL":18,"POSITION":17,"TEXCOORD_0":19,"TEXCOORD_1":20}}]}],"buffers":[{"byteLength":10107,"uri":"68R9U7Q93Y8XWPWEUUUQATVTQ8241N74Z.bin"}],"bufferViews":[{"buffer":0,"target":34963,"byteLength":168,"byteOffset":0},{"buffer":0,"target":34962,"byteLength":444,"byteOffset":240},{"buffer":0,"target":34962,"byteLength":660,"byteOffset":684},{"buffer":0,"target":34962,"byteLength":256,"byteOffset":1308},{"buffer":0,"target":34962,"byteLength":400,"byteOffset":1564},{"buffer":0,"target":34963,"byteLength":10,"byteOffset":1930},{"buffer":0,"target":34962,"byteLength":204,"byteOffset":1940},{"buffer":0,"target":34962,"byteLength":96,"byteOffset":2156},{"buffer":0,"target":34962,"byteLength":320,"byteOffset":2132},{"buffer":0,"target":34962,"byteLength":64,"byteOffset":2364},{"buffer":0,"target":34962,"byteLength":112,"byteOffset":2324},{"buffer":0,"target":34963,"byteLength":370,"byteOffset":2402},{"buffer":0,"target":34962,"byteLength":924,"byteOffset":2772},{"buffer":0,"target":34962,"byteLength":612,"byteOffset":3624},{"buffer":0,"target":34962,"byteLength":536,"byteOffset":4236},{"buffer":0,"target":34962,"byteLength":432,"byteOffset":4780},{"buffer":0,"target":34963,"byteLength":598,"byteOffset":5212},{"buffer":0,"target":34962,"byteLength":852,"byteOffset":5932},{"buffer":0,"target":34962,"byteLength":1068,"byteOffset":6784},{"buffer":0,"target":34962,"byteLength":608,"byteOffset":7836},{"buffer":0,"target":34962,"byteLength":736,"byteOffset":8444}],"accessors":[{"componentType":5123,"type":"SCALAR","bufferView":0,"byteOffset":0,"byteType":524,"count":84},{"componentType":5126,"type":"VEC3","bufferView":1,"byteOffset":0,"byteType":1051,"count":37,"min":[-2.0326886177063,-1.94886875152588,0.0],"max":[2.03269195556641,1.94886875152588,0.544844627380371]},{"componentType":5126,"type":"VEC3","bufferView":2,"byteOffset":0,"byteType":1098,"count":55},{"componentType":5126,"type":"VEC2","bufferView":3,"byteOffset":0,"byteType":1031,"count":32},{"componentType":5126,"type":"VEC2","bufferView":4,"byteOffset":0,"byteType":660,"count":50},{"componentType":5123,"type":"SCALAR","bufferView":5,"byteOffset":0,"byteType":1001,"count":5},{"componentType":5126,"type":"VEC3","bufferView":6,"byteOffset":0,"byteType":386,"count":17,"min":[-0.0173652172088623,-5.00082969665527E-05,-1.36127090454102],"max":[3.42082047462463,-4.95314598083496E-05,1.36127090454102]},{"componentType":5126,"type":"VEC3","bufferView":7,"byteOffset":0,"byteType":1180,"count":8},{"componentType":5126,"type":"VEC4","bufferView":8,"byteOffset":0,"byteType":952,"count":20},{"componentType":5126,"type":"VEC2","bufferView":9,"byteOffset":0,"byteType":778,"count":8},{"componentType":5126,"type":"VEC2","bufferView":10,"byteOffset":0,"byteType":459,"count":14},{"componentType":5123,"type":"SCALAR","bufferView":11,"byteOffset":0,"byteType":1621,"count":185},{"componentType":5126,"type":"VEC3","bufferView":12,"byteOffset":0,"byteType":806,"count":77,"min":[-0.108215928077698,-0.108360707759857,0.316617012023926],"max":[0.1085045337677,0.108359783887863,15.8381328582764]},{"componentType":5126,"type":"VEC3","bufferView":13,"byteOffset":0,"byteType":271,"count":51},{"componentType":5126,"type":"VEC2","bufferView":14,"byteOffset":0,"byteType":1235,"count":67},{"componentType":5126,"type":"VEC2","bufferView":15,"byteOffset":0,"byteType":1655,"count":54},{"componentType":5123,"type":"SCALAR","bufferView":16,"byteOffset":0,"byteType":1810,"count":299},{"componentType":5126,"type":"VEC3","bufferView":17,"byteOffset":0,"byteType":523,"count":71,"min":[-17.9973297119141,-8.29124927520752,-12.152533531189],"max":[-16.2285995483398,-6.5225191116333,-9.74994945526123]},{"componentType":5126,"type":"VEC3","bufferView":18,"byteOffset":0,"byteType":1580,"count":89},{"componentType":5126,"type":"VEC2","bufferView":19,"byteOffset":0,"byteType":877,"count":76},{"componentType":5126,"type":"VEC2","bufferView":20,"byteOffset":0,"byteType":502,"count":92}],"nodes":[{"name":"RootNode","translation":[0.0,0.0,0.0],"rotation":[0.0,0.0,0.0,1.0],"scale":[1.0,1.0,1.0],"children":[1,2,3,4]},{"name":"基座","translation":[-0.019385814666748,0.0,0.0615493953227997],"rotation":[-0.70710676908493,0.0,0.0,0.70710676908493],"scale":[0.454044014215469,0.454044014215469,0.548370003700256],"mesh":0},{"name":"对象005","translation":[0.0738469362258911,14.557993888855,-0.0163657460361719],"rotation":[-0.70710676908493,0.0,0.0,0.70710676908493],"scale":[1.0,1.0,1.0],"mesh":1,"extensions":{"lights":false}},{"name":"旗杆","translation":[-0.0010981559753418,0.0,0.000506609678268433],"rotation":[-0.70710676908493,0.0,0.0,0.70710676908493],"scale":[1.69211304187775,1.69211304187775,1.0],"mesh":2},{"name":"底座","translation":[4.85914659500122,12.2027654647827,-2.10297846794128],"rotation":[-0.70710676908493,0.0,0.0,0.70710676908493],"scale":[0.283960998058319,0.283960998058319,1.0],"mesh":3}],"asset":{"generator":"FBX2glTF","version":"2.0"},"scene":0,"scenes":[{"name":"Root Scene","nodes":[0]}],"samplers":[{}]}
