{"materials":[{"name":"Std_ntexture_01_jpg","pbrMetallicRoughness":{"baseColorTexture":{"index":0,"texCoord":0},"baseColorFactor":[1.0,1.0,1.0,1.0],"metallicFactor":0.099999994,"roughnessFactor":1},"alphaMode":"OPAQUE"}],"images":[{"uri":"TO6WRE6NT722RQPWQGWU6PQY1PODNO727.jpg"}],"textures":[{"name":"smd_1.jpg","sampler":0,"source":0}],"meshes":[{"name":"Lo-ElevatorDoor_01","primitives":[{"material":0,"mode":4,"indices":0,"attributes":{"NORMAL":2,"POSITION":1,"TEXCOORD_0":3}}]}],"buffers":[{"byteLength":8343,"uri":"TH07EWZ6PQ4CGHDWKTFD0GANOG92SMQW1.bin"}],"bufferViews":[{"buffer":0,"target":34963,"byteLength":628,"byteOffset":0},{"buffer":0,"target":34962,"byteLength":2484,"byteOffset":660},{"buffer":0,"target":34962,"byteLength":2580,"byteOffset":3144},{"buffer":0,"target":34962,"byteLength":1632,"byteOffset":5712}],"accessors":[{"componentType":5123,"type":"SCALAR","bufferView":0,"byteOffset":0,"byteType":540,"count":314},{"componentType":5126,"type":"VEC3","bufferView":1,"byteOffset":0,"byteType":1393,"count":207,"min":[-0.751191020011902,-0.063904382288456,-0.00143730000127107],"max":[0.749530375003815,0.182282328605652,2.19999408721924]},{"componentType":5126,"type":"VEC3","bufferView":2,"byteOffset":0,"byteType":1664,"count":215},{"componentType":5126,"type":"VEC2","bufferView":3,"byteOffset":0,"byteType":1605,"count":204}],"nodes":[{"name":"RootNode","translation":[0.0,0.0,0.0],"rotation":[0.0,0.0,0.0,1.0],"scale":[1.0,1.0,1.0],"children":[1,2]},{"name":"Lo-ElevatorDoor_01","translation":[0.0,0.0,0.0],"rotation":[-0.70710676908493,0.0,0.0,0.70710676908493],"scale":[1.0,1.0,1.0],"mesh":0},{"name":"Body","translation":[0.0,0.0,0.0],"rotation":[2.1855694143369E-08,0.0,0.0,1.0],"scale":[1.0,1.0,1.0],"children":[3]},{"name":"Controller","translation":[0.0,0.0,0.0],"rotation":[3.30872245021211E-24,0.0,0.0,1.0],"scale":[1.0,1.0,1.0]}],"asset":{"generator":"FBX2glTF","version":"2.0"},"scene":0,"scenes":[{"name":"Root Scene","nodes":[0]}],"samplers":[{}]}
