{"materials":[{"name":"metal02_Basecolor","pbrMetallicRoughness":{"baseColorTexture":{"index":0,"texCoord":0},"baseColorFactor":[1.0,1.0,1.0,1.0],"metallicFactor":0.75,"roughnessFactor":0.3},"alphaMode":"OPAQUE"},{"name":"Dec02_Basecolor","pbrMetallicRoughness":{"baseColorTexture":{"index":1,"texCoord":0},"baseColorFactor":[1.0,1.0,1.0,1.0],"metallicFactor":0.4,"roughnessFactor":0.3},"alphaMode":"OPAQUE"}],"images":[{"uri":"QTODD8TIITPKM3U2RTT22HT1YOY8YFYVM.jpg"},{"uri":"E7CC1P6E928CE1CMDONKEU7CQUTKXUN7O.jpg"}],"textures":[{"name":"smd_2.jpg","sampler":0,"source":0},{"name":"smd_1_f_png.jpg","sampler":0,"source":1}],"meshes":[{"name":"metal_cube","primitives":[{"material":0,"mode":4,"indices":0,"attributes":{"NORMAL":2,"POSITION":1,"TEXCOORD_0":3}}]},{"name":"辅助建筑_底座","primitives":[{"material":1,"mode":4,"indices":4,"attributes":{"NORMAL":6,"POSITION":5,"TEXCOORD_0":7}}]}],"buffers":[{"byteLength":6179,"uri":"ZTU5QYOX17247T14DO8Q481VIU705A0S5.bin"}],"bufferViews":[{"buffer":0,"target":34963,"byteLength":402,"byteOffset":0},{"buffer":0,"target":34962,"byteLength":1428,"byteOffset":492},{"buffer":0,"target":34962,"byteLength":1644,"byteOffset":1920},{"buffer":0,"target":34962,"byteLength":952,"byteOffset":3528},{"buffer":0,"target":34963,"byteLength":78,"byteOffset":4480},{"buffer":0,"target":34962,"byteLength":132,"byteOffset":4648},{"buffer":0,"target":34962,"byteLength":348,"byteOffset":4780},{"buffer":0,"target":34962,"byteLength":88,"byteOffset":5092}],"accessors":[{"componentType":5123,"type":"SCALAR","bufferView":0,"byteOffset":0,"byteType":1530,"count":201},{"componentType":5126,"type":"VEC3","bufferView":1,"byteOffset":0,"byteType":925,"count":119,"min":[-4.25332832336426,-7.49800872802734,-0.55456805229187],"max":[4.25332832336426,7.49800682067871,0.554567813873291]},{"componentType":5126,"type":"VEC3","bufferView":2,"byteOffset":0,"byteType":1070,"count":137},{"componentType":5126,"type":"VEC2","bufferView":3,"byteOffset":0,"byteType":425,"count":119},{"componentType":5123,"type":"SCALAR","bufferView":4,"byteOffset":0,"byteType":470,"count":39},{"componentType":5126,"type":"VEC3","bufferView":5,"byteOffset":0,"byteType":1045,"count":11,"min":[-4.25234413146973,-7.5,0.0],"max":[4.25234413146973,7.5,3.04907965660095]},{"componentType":5126,"type":"VEC3","bufferView":6,"byteOffset":0,"byteType":281,"count":29},{"componentType":5126,"type":"VEC2","bufferView":7,"byteOffset":0,"byteType":1407,"count":11}],"nodes":[{"name":"RootNode","translation":[0.0,0.0,0.0],"rotation":[0.0,0.0,0.0,1.0],"scale":[1.0,1.0,1.0],"children":[1,2]},{"name":"metal_cube","translation":[0.000101089477539063,3.5614538192749,0.00152206420898438],"rotation":[-0.70710676908493,0.0,0.0,0.70710676908493],"scale":[1.0,1.0,1.0],"mesh":0},{"name":"辅助建筑_底座","translation":[-0.00108528137207031,0.0,0.0],"rotation":[-0.70710676908493,0.0,0.0,0.70710676908493],"scale":[1.0,1.0,1.0],"mesh":1}],"asset":{"generator":"FBX2glTF","version":"2.0"},"scene":0,"scenes":[{"name":"Root Scene","nodes":[0]}],"samplers":[{}]}
