{"materials":[{"name":"Metal01_Basecolor","pbrMetallicRoughness":{"baseColorTexture":{"index":0,"texCoord":0},"baseColorFactor":[1.0,1.0,1.0,1.0],"metallicFactor":0.75,"roughnessFactor":0.3},"alphaMode":"OPAQUE"},{"name":"Dec01_Basecolor","pbrMetallicRoughness":{"baseColorTexture":{"index":1,"texCoord":0},"baseColorFactor":[1.0,1.0,1.0,1.0],"metallicFactor":0.75,"roughnessFactor":0.3},"alphaMode":"OPAQUE"}],"images":[{"uri":"7D04APIPOD6UCZ675Z2KTJ61TTJKCUNQE.jpg"},{"uri":"J8D8X886XQYSQU1Q2HTSRF1UEW42DFDC2.jpg"}],"textures":[{"name":"smd_2.jpg","sampler":0,"source":0},{"name":"smd_1_f_png.jpg","sampler":0,"source":1}],"meshes":[{"name":"园区_装饰一","primitives":[{"material":0,"mode":4,"indices":0,"attributes":{"NORMAL":2,"POSITION":1,"TEXCOORD_0":3}}]},{"name":"metal_cylinder","primitives":[{"material":1,"mode":4,"indices":4,"attributes":{"NORMAL":6,"POSITION":5,"TEXCOORD_0":7}}]}],"buffers":[{"byteLength":60971,"uri":"8NOI1TUDIU6KGHD1DWUNCZNIQ78NOT78R.bin"}],"bufferViews":[{"buffer":0,"target":34963,"byteLength":8680,"byteOffset":0},{"buffer":0,"target":34962,"byteLength":16884,"byteOffset":8892},{"buffer":0,"target":34962,"byteLength":17376,"byteOffset":25776},{"buffer":0,"target":34962,"byteLength":11256,"byteOffset":43080},{"buffer":0,"target":34963,"byteLength":728,"byteOffset":54336},{"buffer":0,"target":34962,"byteLength":1716,"byteOffset":55176},{"buffer":0,"target":34962,"byteLength":1956,"byteOffset":56892},{"buffer":0,"target":34962,"byteLength":1152,"byteOffset":58820}],"accessors":[{"componentType":5123,"type":"SCALAR","bufferView":0,"byteOffset":0,"byteType":223,"count":4340},{"componentType":5126,"type":"VEC3","bufferView":1,"byteOffset":0,"byteType":553,"count":1407,"min":[-2.98316192626953,-3.56678152084351,-4.81045390188228E-07],"max":[2.98316192626953,3.56678199768066,16.6720943450928]},{"componentType":5126,"type":"VEC3","bufferView":2,"byteOffset":0,"byteType":358,"count":1448},{"componentType":5126,"type":"VEC2","bufferView":3,"byteOffset":0,"byteType":1141,"count":1407},{"componentType":5123,"type":"SCALAR","bufferView":4,"byteOffset":0,"byteType":590,"count":364},{"componentType":5126,"type":"VEC3","bufferView":5,"byteOffset":0,"byteType":1695,"count":143,"min":[-2.86408281326294,-2.86408281326294,0.0],"max":[2.86408281326294,2.86408281326294,15.8544301986694]},{"componentType":5126,"type":"VEC3","bufferView":6,"byteOffset":0,"byteType":279,"count":163},{"componentType":5126,"type":"VEC2","bufferView":7,"byteOffset":0,"byteType":1899,"count":144}],"nodes":[{"name":"RootNode","translation":[0.0,0.0,0.0],"rotation":[0.0,0.0,0.0,1.0],"scale":[1.0,1.0,1.0],"children":[1,2]},{"name":"园区_装饰一","translation":[-9.5367431640625E-07,0.0,0.0],"rotation":[-0.70710676908493,0.0,0.0,0.70710676908493],"scale":[1.0,1.0,1.0],"mesh":0},{"name":"metal_cylinder","translation":[-3.57627868652344E-07,0.0,0.0230422019958496],"rotation":[-0.70710676908493,0.0,0.0,0.70710676908493],"scale":[1.0,1.0,1.0],"mesh":1}],"asset":{"generator":"FBX2glTF","version":"2.0"},"scene":0,"scenes":[{"name":"Root Scene","nodes":[0]}],"samplers":[{}]}
