{"materials":[{"name":"Pedestal_Basecolor","pbrMetallicRoughness":{"baseColorTexture":{"index":0,"texCoord":0},"baseColorFactor":[1.0,1.0,1.0,1.0],"metallicFactor":0,"roughnessFactor":1},"alphaMode":"OPAQUE"},{"name":"Pole_Basecolor","pbrMetallicRoughness":{"baseColorTexture":{"index":1,"texCoord":0},"baseColorFactor":[1.0,1.0,1.0,1.0],"metallicFactor":0,"roughnessFactor":0.399999976},"alphaMode":"OPAQUE","emissiveFactor":[0.15,0.15,0.15,1.0]},{"name":"03_-_Default","pbrMetallicRoughness":{"baseColorFactor":[0.294117659,0.294117659,0.294117659,1.0],"metallicFactor":0.6,"roughnessFactor":0.0},"alphaMode":"OPAQUE"}],"images":[{"uri":"TDCOE0QY8YKREYOD237SE3214Z11GA7NE.jpg"},{"uri":"H81OWUI4HUNXD90IIU8Q2O8OE161YEU7X.jpg"}],"textures":[{"name":"smd_2_f_png.jpg","sampler":0,"source":0},{"name":"smd_1_f_png.jpg","sampler":0,"source":1}],"meshes":[{"name":"底座","primitives":[{"material":0,"mode":4,"indices":4,"attributes":{"NORMAL":6,"POSITION":5,"TEXCOORD_0":7}}]},{"name":"主机","primitives":[{"material":1,"mode":4,"indices":8,"attributes":{"NORMAL":10,"POSITION":9,"TEXCOORD_0":11}}]},{"name":"升降杆","primitives":[{"material":2,"mode":4,"indices":12,"attributes":{"NORMAL":14,"POSITION":13,"TEXCOORD_0":15}}]}],"buffers":[{"byteLength":17851,"uri":"QPSDCO6QEA805TJVI861RW7IEOPIQHNVO.bin"}],"bufferViews":[{"buffer":0,"byteLength":200,"byteOffset":0},{"buffer":0,"byteLength":208,"byteOffset":432},{"buffer":0,"byteLength":188,"byteOffset":640},{"buffer":0,"byteLength":320,"byteOffset":1000},{"buffer":0,"target":34963,"byteLength":440,"byteOffset":1320},{"buffer":0,"target":34962,"byteLength":828,"byteOffset":1872},{"buffer":0,"target":34962,"byteLength":1104,"byteOffset":2700},{"buffer":0,"target":34962,"byteLength":536,"byteOffset":3764},{"buffer":0,"target":34963,"byteLength":872,"byteOffset":4300},{"buffer":0,"target":34962,"byteLength":3564,"byteOffset":5224},{"buffer":0,"target":34962,"byteLength":3744,"byteOffset":8788},{"buffer":0,"target":34962,"byteLength":2328,"byteOffset":12500},{"buffer":0,"target":34963,"byteLength":198,"byteOffset":14828},{"buffer":0,"target":34962,"byteLength":588,"byteOffset":15104},{"buffer":0,"target":34962,"byteLength":756,"byteOffset":15692},{"buffer":0,"target":34962,"byteLength":416,"byteOffset":16436}],"accessors":[{"componentType":5126,"type":"SCALAR","bufferView":0,"byteOffset":0,"byteType":532,"count":50,"min":[0.0],"max":[1.29166662693024]},{"componentType":5126,"type":"VEC4","bufferView":1,"byteOffset":0,"byteType":971,"count":13},{"componentType":5126,"type":"SCALAR","bufferView":2,"byteOffset":0,"byteType":1253,"count":47,"min":[-0.0416634082794189],"max":[1.33333671092987]},{"componentType":5126,"type":"VEC4","bufferView":3,"byteOffset":0,"byteType":363,"count":20},{"componentType":5123,"type":"SCALAR","bufferView":4,"byteOffset":0,"byteType":797,"count":220},{"componentType":5126,"type":"VEC3","bufferView":5,"byteOffset":0,"byteType":501,"count":69,"min":[5.96738433837891,-0.795065701007843,0.0],"max":[6.77680969238281,0.847273647785187,0.0420788340270519]},{"componentType":5126,"type":"VEC3","bufferView":6,"byteOffset":0,"byteType":596,"count":92},{"componentType":5126,"type":"VEC2","bufferView":7,"byteOffset":0,"byteType":1371,"count":67},{"componentType":5123,"type":"SCALAR","bufferView":8,"byteOffset":0,"byteType":221,"count":436},{"componentType":5126,"type":"VEC3","bufferView":9,"byteOffset":0,"byteType":511,"count":297,"min":[-0.277697026729584,-0.228924885392189,0.0],"max":[0.271947234869003,0.184703141450882,1.32682478427887]},{"componentType":5126,"type":"VEC3","bufferView":10,"byteOffset":0,"byteType":313,"count":312},{"componentType":5126,"type":"VEC2","bufferView":11,"byteOffset":0,"byteType":909,"count":291},{"componentType":5123,"type":"SCALAR","bufferView":12,"byteOffset":0,"byteType":722,"count":99},{"componentType":5126,"type":"VEC3","bufferView":13,"byteOffset":0,"byteType":1465,"count":49,"min":[0.0,-7.45058059692383E-09,-0.0499117560684681],"max":[9.45560169219971,0.132240295410156,0.0506772510707378]},{"componentType":5126,"type":"VEC3","bufferView":14,"byteOffset":0,"byteType":997,"count":63},{"componentType":5126,"type":"VEC2","bufferView":15,"byteOffset":0,"byteType":1641,"count":52}],"nodes":[{"name":"RootNode","translation":[0.0,0.0,0.0],"rotation":[0.0,0.0,0.0,1.0],"scale":[1.0,1.0,1.0],"children":[1,2,3]},{"name":"底座","translation":[-10.1818313598633,0.0,0.0261001586914063],"rotation":[-0.70710676908493,0.0,0.0,0.70710676908493],"scale":[1.0,1.0,1.0],"mesh":0},{"name":"主机","translation":[-3.81218719482422,0.0,0.00396728515625],"rotation":[-0.70710676908493,0.0,0.0,0.70710676908493],"scale":[1.0,1.0,1.0],"mesh":1},{"name":"升降杆","translation":[-3.87385725975037,0.984394431114197,-0.174781799316406],"rotation":[-0.70710676908493,-8.42936955791629E-08,8.42936955791629E-08,0.70710676908493],"scale":[1.0,1.0,1.0],"mesh":2}],"animations":[{"name":"_起_","channels":[{"sampler":0,"target":{"node":3,"path":"rotation"}}],"samplers":[{"input":0,"interpolation":"LINEAR","output":1}]},{"name":"_落_","channels":[{"sampler":0,"target":{"node":3,"path":"rotation"}}],"samplers":[{"input":2,"interpolation":"LINEAR","output":3}]}],"asset":{"generator":"FBX2glTF","version":"2.0"},"scene":0,"scenes":[{"name":"Root Scene","nodes":[0]}],"samplers":[{}]}
