{"materials":[{"name":"metal02_Basecolor","pbrMetallicRoughness":{"baseColorTexture":{"index":0,"texCoord":0},"baseColorFactor":[1.0,1.0,1.0,1.0],"metallicFactor":0.75,"roughnessFactor":0.3},"alphaMode":"OPAQUE"},{"name":"metal01_Basecolor","pbrMetallicRoughness":{"baseColorTexture":{"index":1,"texCoord":0},"baseColorFactor":[1.0,1.0,1.0,1.0],"metallicFactor":0.75,"roughnessFactor":0.3},"alphaMode":"OPAQUE"}],"images":[{"uri":"QTODD8TIITPKM3U2RTT22HT1YOY8YFYVM.jpg"},{"uri":"7D04APIPOD6UCZ675Z2KTJ61TTJKCUNQE.jpg"}],"textures":[{"name":"smd_2.jpg","sampler":0,"source":0},{"name":"smd_1.jpg","sampler":0,"source":1}],"meshes":[{"name":"metal_cube","primitives":[{"material":0,"mode":4,"indices":0,"attributes":{"NORMAL":2,"POSITION":1,"TEXCOORD_0":3}}]},{"name":"metal_cylinder","primitives":[{"material":1,"mode":4,"indices":4,"attributes":{"NORMAL":6,"POSITION":5,"TEXCOORD_0":7}}]}],"buffers":[{"byteLength":133223,"uri":"UTNROUIP9DTND17W2JTVQ82STE60DWPCG.bin"}],"bufferViews":[{"buffer":0,"target":34963,"byteLength":10774,"byteOffset":0},{"buffer":0,"target":34962,"byteLength":42492,"byteOffset":10884},{"buffer":0,"target":34962,"byteLength":42756,"byteOffset":53376},{"buffer":0,"target":34962,"byteLength":28328,"byteOffset":96088},{"buffer":0,"target":34963,"byteLength":1174,"byteOffset":124416},{"buffer":0,"target":34962,"byteLength":2364,"byteOffset":125700},{"buffer":0,"target":34962,"byteLength":2628,"byteOffset":128064},{"buffer":0,"target":34962,"byteLength":1576,"byteOffset":130648}],"accessors":[{"componentType":5123,"type":"SCALAR","bufferView":0,"byteOffset":0,"byteType":1500,"count":5387},{"componentType":5126,"type":"VEC3","bufferView":1,"byteOffset":0,"byteType":769,"count":3541,"min":[-21.3917121887207,-4.85172653198242,0.0502319112420082],"max":[21.3917102813721,4.85239791870117,10.6235876083374]},{"componentType":5126,"type":"VEC3","bufferView":2,"byteOffset":0,"byteType":308,"count":3563},{"componentType":5126,"type":"VEC2","bufferView":3,"byteOffset":0,"byteType":1735,"count":3541},{"componentType":5123,"type":"SCALAR","bufferView":4,"byteOffset":0,"byteType":1994,"count":587},{"componentType":5126,"type":"VEC3","bufferView":5,"byteOffset":0,"byteType":1471,"count":197,"min":[-4.18173599243164,-20.5370235443115,0.252206802368164],"max":[4.18173408508301,20.5370254516602,8.30839347839355]},{"componentType":5126,"type":"VEC3","bufferView":6,"byteOffset":0,"byteType":345,"count":219},{"componentType":5126,"type":"VEC2","bufferView":7,"byteOffset":0,"byteType":619,"count":197}],"nodes":[{"name":"RootNode","translation":[0.0,0.0,0.0],"rotation":[0.0,0.0,0.0,1.0],"scale":[1.0,1.0,1.0],"children":[1,2]},{"name":"metal_cube","translation":[0.0,0.0,0.0],"rotation":[-0.5,0.5,0.5,0.5],"scale":[1.0,1.0,1.0],"mesh":0},{"name":"metal_cylinder","translation":[0.0118656158447266,0.0,-0.182751655578613],"rotation":[-0.70710676908493,0.0,0.0,0.70710676908493],"scale":[1.0,1.0,1.0],"mesh":1}],"asset":{"generator":"FBX2glTF","version":"2.0"},"scene":0,"scenes":[{"name":"Root Scene","nodes":[0]}],"samplers":[{}]}
