{"materials":[{"name":"Conveyor02_Basecolor","pbrMetallicRoughness":{"baseColorTexture":{"index":0,"texCoord":0},"baseColorFactor":[1.0,1.0,1.0,1.0],"metallicFactor":0.099999994,"roughnessFactor":1},"alphaMode":"OPAQUE"},{"name":"Conveyor01_Basecolor","pbrMetallicRoughness":{"baseColorTexture":{"index":1,"texCoord":0},"baseColorFactor":[1.0,1.0,1.0,1.0],"metallicFactor":0.099999994,"roughnessFactor":0.399999976},"alphaMode":"OPAQUE"}],"images":[{"uri":"8UVTZ7VDIO41PTP7XW20DEZ859TCXE21Q.jpg"},{"uri":"91K5D8UWYTUIEU0OQZ1NOZZNYQY65AJUC.jpg"}],"textures":[{"name":"smd_1_f_png.jpg","sampler":0,"source":0},{"name":"smd_2_f_png.jpg","sampler":0,"source":1}],"meshes":[{"name":"传送带_01","primitives":[{"material":0,"mode":4,"indices":0,"attributes":{"NORMAL":2,"POSITION":1,"TEXCOORD_0":3}}]},{"name":"传送带_02","primitives":[{"material":1,"mode":4,"indices":4,"attributes":{"NORMAL":6,"POSITION":5,"TEXCOORD_0":7}}]}],"buffers":[{"byteLength":96743,"uri":"F7OTF6DVOUYNOOU05WJ7EEU6PZPN4QTOP.bin"}],"bufferViews":[{"buffer":0,"target":34963,"byteLength":1322,"byteOffset":0},{"buffer":0,"target":34962,"byteLength":3132,"byteOffset":1452},{"buffer":0,"target":34962,"byteLength":3444,"byteOffset":4584},{"buffer":0,"target":34962,"byteLength":2088,"byteOffset":7976},{"buffer":0,"target":34963,"byteLength":8138,"byteOffset":10064},{"buffer":0,"target":34962,"byteLength":28932,"byteOffset":18332},{"buffer":0,"target":34962,"byteLength":29244,"byteOffset":47264},{"buffer":0,"target":34962,"byteLength":19288,"byteOffset":76456}],"accessors":[{"componentType":5123,"type":"SCALAR","bufferView":0,"byteOffset":0,"byteType":882,"count":661},{"componentType":5126,"type":"VEC3","bufferView":1,"byteOffset":0,"byteType":1775,"count":261,"min":[-3.79408311843872,-7.57434988021851,-0.692195534706116],"max":[3.14186549186707,7.35858583450317,1.02900719642639]},{"componentType":5126,"type":"VEC3","bufferView":2,"byteOffset":0,"byteType":570,"count":287},{"componentType":5126,"type":"VEC2","bufferView":3,"byteOffset":0,"byteType":777,"count":261},{"componentType":5123,"type":"SCALAR","bufferView":4,"byteOffset":0,"byteType":1390,"count":4069},{"componentType":5126,"type":"VEC3","bufferView":5,"byteOffset":0,"byteType":1393,"count":2411,"min":[-3.85449862480164,-7.64295864105225,-0.692198216915131],"max":[2.92260527610779,7.35077285766602,0.172581791877747]},{"componentType":5126,"type":"VEC3","bufferView":6,"byteOffset":0,"byteType":1819,"count":2437},{"componentType":5126,"type":"VEC2","bufferView":7,"byteOffset":0,"byteType":1245,"count":2411}],"nodes":[{"name":"RootNode","translation":[0.0,0.0,0.0],"rotation":[0.0,0.0,0.0,1.0],"scale":[1.0,1.0,1.0],"children":[1,2]},{"name":"传送带_01","translation":[0.356316566467285,0.668701171875,-0.142186298966408],"rotation":[-0.70710676908493,0.0,0.0,0.70710676908493],"scale":[1.0,1.0,1.0],"mesh":0},{"name":"传送带_02","translation":[0.356316566467285,0.668701171875,-0.142186298966408],"rotation":[-0.70710676908493,0.0,0.0,0.70710676908493],"scale":[1.0,1.0,1.0],"mesh":1}],"asset":{"generator":"FBX2glTF","version":"2.0"},"scene":0,"scenes":[{"name":"Root Scene","nodes":[0]}],"samplers":[{}]}
