{"materials":[{"name":"Machine_Basecolor","pbrMetallicRoughness":{"baseColorTexture":{"index":0,"texCoord":0},"baseColorFactor":[1.0,1.0,1.0,1.0],"metallicFactor":0.099999994,"roughnessFactor":0.399999976},"alphaMode":"OPAQUE"}],"images":[{"uri":"XW8K5AWJQXW6W217QI7NQGED0YZZOY72K.jpg"}],"textures":[{"name":"smd_1_f_png.jpg","sampler":0,"source":0}],"meshes":[{"name":"机器","primitives":[{"material":0,"mode":4,"indices":0,"attributes":{"NORMAL":2,"POSITION":1,"TEXCOORD_0":3}}]}],"buffers":[{"byteLength":15431,"uri":"RA7O58W7X7WT2EE4COHWSGF86OEDS2ODC.bin"}],"bufferViews":[{"buffer":0,"target":34963,"byteLength":1754,"byteOffset":0},{"buffer":0,"target":34962,"byteLength":4596,"byteOffset":1896},{"buffer":0,"target":34962,"byteLength":4908,"byteOffset":6492},{"buffer":0,"target":34962,"byteLength":3072,"byteOffset":11360}],"accessors":[{"componentType":5123,"type":"SCALAR","bufferView":0,"byteOffset":0,"byteType":1924,"count":877},{"componentType":5126,"type":"VEC3","bufferView":1,"byteOffset":0,"byteType":407,"count":383,"min":[-1.0821008682251,-0.84431529045105,0.0],"max":[1.08210074901581,0.84431529045105,1.60088074207306]},{"componentType":5126,"type":"VEC3","bufferView":2,"byteOffset":0,"byteType":1882,"count":409},{"componentType":5126,"type":"VEC2","bufferView":3,"byteOffset":0,"byteType":649,"count":384}],"nodes":[{"name":"RootNode","translation":[0.0,0.0,0.0],"rotation":[0.0,0.0,0.0,1.0],"scale":[1.0,1.0,1.0],"children":[1]},{"name":"机器","translation":[0.0,0.0,0.0],"rotation":[-0.70710676908493,0.0,0.0,0.70710676908493],"scale":[1.0,1.0,1.0],"mesh":0}],"asset":{"generator":"FBX2glTF","version":"2.0"},"scene":0,"scenes":[{"name":"Root Scene","nodes":[0]}],"samplers":[{}]}
