{"materials":[{"name":"Dec03_Basecolor","pbrMetallicRoughness":{"baseColorTexture":{"index":0,"texCoord":0},"baseColorFactor":[1.0,1.0,1.0,1.0],"metallicFactor":0.099999994,"roughnessFactor":0.5},"alphaMode":"OPAQUE","emissiveFactor":[0.1,0.1,0.1,1.0]},{"name":"Body_Basecolor","pbrMetallicRoughness":{"baseColorTexture":{"index":1,"texCoord":0},"baseColorFactor":[1.0,1.0,1.0,1.0],"metallicFactor":0,"roughnessFactor":0.7},"alphaMode":"OPAQUE"},{"name":"Material__0","pbrMetallicRoughness":{"baseColorTexture":{"index":2,"texCoord":0},"baseColorFactor":[1.0,1.0,1.0,1.0],"metallicFactor":1.0,"roughnessFactor":0.0},"alphaMode":"OPAQUE"},{"name":"Dce02_Basecolor","pbrMetallicRoughness":{"baseColorTexture":{"index":3,"texCoord":0},"baseColorFactor":[1.0,1.0,1.0,1.0],"metallicFactor":0,"roughnessFactor":0.7},"alphaMode":"OPAQUE"},{"name":"Dec01_Basecolor","pbrMetallicRoughness":{"baseColorTexture":{"index":4,"texCoord":0},"baseColorFactor":[1.0,1.0,1.0,1.0],"metallicFactor":0,"roughnessFactor":0.6},"alphaMode":"OPAQUE"},{"name":"metal01_Basecolor","pbrMetallicRoughness":{"baseColorTexture":{"index":5,"texCoord":0},"baseColorFactor":[1.0,1.0,1.0,1.0],"metallicFactor":0.75,"roughnessFactor":0.3},"alphaMode":"OPAQUE"},{"name":"Light_Basecolor","pbrMetallicRoughness":{"baseColorFactor":[0.5882353,0.5882353,0.5882353,1.0],"metallicFactor":0.099999994,"roughnessFactor":0.5},"alphaMode":"OPAQUE","emissiveFactor":[0.15,0.15,0.15,1.0]},{"name":"Inside_Basecolor","pbrMetallicRoughness":{"baseColorFactor":[0.2901961,0.2901961,0.2901961,1.0],"metallicFactor":0.099999994,"roughnessFactor":1},"alphaMode":"OPAQUE"},{"name":"Window_Basecolor","pbrMetallicRoughness":{"baseColorFactor":[0.9019608,0.9019608,0.9019608,1.0],"metallicFactor":1.0,"roughnessFactor":0.0},"alphaMode":"OPAQUE"}],"images":[{"uri":"UY1CZZIDHRD2EUYVREPCC9J1P7J1DW72E.jpg"},{"uri":"W60OJWS2111RTJCRARD1R8JKQTT6DU7KE.jpg"},{"uri":"QTORD8TIITPKM3U2RTT22HT1YOY8YFYVM.jpg"},{"uri":"Q8QRC9USQA02DUDSPUY04ETVGQ6VDETKQ.jpg"},{"uri":"HUWDO4O472WIR74QCH2QRZDKQW6VT86S4.jpg"},{"uri":"7D04APIPOR6UCZ675Z2KTJ61TTJKCUNQE.jpg"}],"textures":[{"name":"smd_1_f_png.jpg","sampler":0,"source":0},{"name":"smd_3_f_png.jpg","sampler":0,"source":1},{"name":"smd_6.jpg","sampler":0,"source":2},{"name":"smd_5_f_png.jpg","sampler":0,"source":3},{"name":"smd_2_f_png.jpg","sampler":0,"source":4},{"name":"smd_7.jpg","sampler":0,"source":5}],"meshes":[{"name":"主楼_装饰三","primitives":[{"material":0,"mode":4,"indices":10,"attributes":{"NORMAL":12,"POSITION":11,"TEXCOORD_0":13}}]},{"name":"主楼_楼体","primitives":[{"material":1,"mode":4,"indices":14,"attributes":{"NORMAL":16,"POSITION":15,"TEXCOORD_0":17}}]},{"name":"门体","primitives":[{"material":1,"mode":4,"indices":18,"attributes":{"NORMAL":20,"POSITION":19,"TEXCOORD_0":21}}]},{"name":"门体33","primitives":[{"material":1,"mode":4,"indices":22,"attributes":{"NORMAL":24,"POSITION":23,"TEXCOORD_0":25}}]},{"name":"门框","primitives":[{"material":2,"mode":4,"indices":26,"attributes":{"NORMAL":28,"POSITION":27,"TEXCOORD_0":29}}]},{"name":"门框32","primitives":[{"material":2,"mode":4,"indices":30,"attributes":{"NORMAL":32,"POSITION":31,"TEXCOORD_0":33}}]},{"name":"metal_cube","primitives":[{"material":2,"mode":4,"indices":34,"attributes":{"NORMAL":36,"POSITION":35,"TEXCOORD_0":37}}]},{"name":"主楼_装饰二","primitives":[{"material":3,"mode":4,"indices":38,"attributes":{"NORMAL":40,"POSITION":39,"TEXCOORD_0":41}}]},{"name":"主楼_装饰一","primitives":[{"material":4,"mode":4,"indices":42,"attributes":{"NORMAL":44,"POSITION":43,"TEXCOORD_0":45}}]},{"name":"主楼_管道","primitives":[{"material":5,"mode":4,"indices":46,"attributes":{"NORMAL":48,"POSITION":47,"TEXCOORD_0":49}}]},{"name":"metal_cylinder","primitives":[{"material":5,"mode":4,"indices":50,"attributes":{"NORMAL":52,"POSITION":51,"TEXCOORD_0":53}}]},{"name":"主楼_灯","primitives":[{"material":6,"mode":4,"indices":54,"attributes":{"NORMAL":56,"POSITION":55,"TEXCOORD_0":57}}]},{"name":"主楼_内部","primitives":[{"material":7,"mode":4,"indices":58,"attributes":{"NORMAL":60,"POSITION":59,"TEXCOORD_0":61}}]},{"name":"主楼_窗户","primitives":[{"material":8,"mode":4,"indices":62,"attributes":{"NORMAL":64,"POSITION":63,"TEXCOORD_0":65}}]}],"buffers":[{"byteLength":282603,"uri":"ARTVXA8OO94NPW1CD3UCOAWNR3YQMEYV5.bin"}],"bufferViews":[{"buffer":0,"byteLength":240,"byteOffset":0},{"buffer":0,"byteLength":444,"byteOffset":340},{"buffer":0,"byteLength":852,"byteOffset":784},{"buffer":0,"byteLength":312,"byteOffset":1648},{"buffer":0,"byteLength":792,"byteOffset":1960},{"buffer":0,"byteLength":124,"byteOffset":2620},{"buffer":0,"byteLength":696,"byteOffset":2744},{"buffer":0,"byteLength":468,"byteOffset":3452},{"buffer":0,"byteLength":636,"byteOffset":3920},{"buffer":0,"byteLength":528,"byteOffset":4568},{"buffer":0,"target":34963,"byteLength":238,"byteOffset":5096},{"buffer":0,"target":34962,"byteLength":768,"byteOffset":5396},{"buffer":0,"target":34962,"byteLength":1044,"byteOffset":6164},{"buffer":0,"target":34962,"byteLength":472,"byteOffset":7092},{"buffer":0,"target":34963,"byteLength":2728,"byteOffset":7564},{"buffer":0,"target":34962,"byteLength":7644,"byteOffset":10356},{"buffer":0,"target":34962,"byteLength":7872,"byteOffset":18000},{"buffer":0,"target":34962,"byteLength":5032,"byteOffset":25828},{"buffer":0,"target":34963,"byteLength":60,"byteOffset":30860},{"buffer":0,"target":34962,"byteLength":48,"byteOffset":31172},{"buffer":0,"target":34962,"byteLength":192,"byteOffset":30920},{"buffer":0,"target":34962,"byteLength":32,"byteOffset":31072},{"buffer":0,"target":34963,"byteLength":34,"byteOffset":31000},{"buffer":0,"target":34962,"byteLength":48,"byteOffset":31156},{"buffer":0,"target":34962,"byteLength":120,"byteOffset":31060},{"buffer":0,"target":34962,"byteLength":32,"byteOffset":31164},{"buffer":0,"target":34963,"byteLength":146,"byteOffset":31140},{"buffer":0,"target":34962,"byteLength":516,"byteOffset":31284},{"buffer":0,"target":34962,"byteLength":672,"byteOffset":31800},{"buffer":0,"target":34962,"byteLength":248,"byteOffset":32432},{"buffer":0,"target":34963,"byteLength":146,"byteOffset":32680},{"buffer":0,"target":34962,"byteLength":432,"byteOffset":32908},{"buffer":0,"target":34962,"byteLength":708,"byteOffset":33340},{"buffer":0,"target":34962,"byteLength":224,"byteOffset":33996},{"buffer":0,"target":34963,"byteLength":13502,"byteOffset":34220},{"buffer":0,"target":34962,"byteLength":52032,"byteOffset":47924},{"buffer":0,"target":34962,"byteLength":52440,"byteOffset":99956},{"buffer":0,"target":34962,"byteLength":34728,"byteOffset":152348},{"buffer":0,"target":34963,"byteLength":638,"byteOffset":187076},{"buffer":0,"target":34962,"byteLength":1656,"byteOffset":187856},{"buffer":0,"target":34962,"byteLength":1920,"byteOffset":189512},{"buffer":0,"target":34962,"byteLength":1200,"byteOffset":191352},{"buffer":0,"target":34963,"byteLength":7228,"byteOffset":192552},{"buffer":0,"target":34962,"byteLength":10584,"byteOffset":199812},{"buffer":0,"target":34962,"byteLength":10788,"byteOffset":210396},{"buffer":0,"target":34962,"byteLength":6960,"byteOffset":221136},{"buffer":0,"target":34963,"byteLength":4242,"byteOffset":228096},{"buffer":0,"target":34962,"byteLength":4824,"byteOffset":232440},{"buffer":0,"target":34962,"byteLength":5064,"byteOffset":237264},{"buffer":0,"target":34962,"byteLength":3208,"byteOffset":242296},{"buffer":0,"target":34963,"byteLength":5394,"byteOffset":245504},{"buffer":0,"target":34962,"byteLength":10032,"byteOffset":251120},{"buffer":0,"target":34962,"byteLength":10488,"byteOffset":261152},{"buffer":0,"target":34962,"byteLength":6728,"byteOffset":271584},{"buffer":0,"target":34963,"byteLength":150,"byteOffset":278312},{"buffer":0,"target":34962,"byteLength":372,"byteOffset":278540},{"buffer":0,"target":34962,"byteLength":516,"byteOffset":278912},{"buffer":0,"target":34962,"byteLength":288,"byteOffset":279424},{"buffer":0,"target":34963,"byteLength":56,"byteOffset":279712},{"buffer":0,"target":34962,"byteLength":132,"byteOffset":279820},{"buffer":0,"target":34962,"byteLength":384,"byteOffset":279952},{"buffer":0,"target":34962,"byteLength":128,"byteOffset":280280},{"buffer":0,"target":34963,"byteLength":188,"byteOffset":280272},{"buffer":0,"target":34962,"byteLength":372,"byteOffset":280512},{"buffer":0,"target":34962,"byteLength":576,"byteOffset":280884},{"buffer":0,"target":34962,"byteLength":184,"byteOffset":281420}],"accessors":[{"componentType":5126,"type":"SCALAR","bufferView":0,"byteOffset":0,"byteType":242,"count":60,"min":[0.0],"max":[2.0]},{"componentType":5126,"type":"VEC3","bufferView":1,"byteOffset":0,"byteType":1301,"count":37},{"componentType":5126,"type":"VEC3","bufferView":2,"byteOffset":0,"byteType":1652,"count":71},{"componentType":5126,"type":"VEC3","bufferView":3,"byteOffset":0,"byteType":447,"count":26},{"componentType":5126,"type":"VEC3","bufferView":4,"byteOffset":0,"byteType":1865,"count":66},{"componentType":5126,"type":"SCALAR","bufferView":5,"byteOffset":0,"byteType":1451,"count":31,"min":[0.0],"max":[2.0]},{"componentType":5126,"type":"VEC3","bufferView":6,"byteOffset":0,"byteType":1705,"count":58},{"componentType":5126,"type":"VEC3","bufferView":7,"byteOffset":0,"byteType":815,"count":39},{"componentType":5126,"type":"VEC3","bufferView":8,"byteOffset":0,"byteType":1507,"count":53},{"componentType":5126,"type":"VEC3","bufferView":9,"byteOffset":0,"byteType":1781,"count":44},{"componentType":5123,"type":"SCALAR","bufferView":10,"byteOffset":0,"byteType":1652,"count":119},{"componentType":5126,"type":"VEC3","bufferView":11,"byteOffset":0,"byteType":757,"count":64,"min":[-19.4525547027588,-7.13644790649414,-1.69227981567383],"max":[19.4525547027588,7.13644790649414,1.6922779083252]},{"componentType":5126,"type":"VEC3","bufferView":12,"byteOffset":0,"byteType":680,"count":87},{"componentType":5126,"type":"VEC2","bufferView":13,"byteOffset":0,"byteType":849,"count":59},{"componentType":5123,"type":"SCALAR","bufferView":14,"byteOffset":0,"byteType":1577,"count":1364},{"componentType":5126,"type":"VEC3","bufferView":15,"byteOffset":0,"byteType":829,"count":637,"min":[-24.2255687713623,-9.89284515380859,-6.69280552756391E-07],"max":[24.2255687713623,9.89284515380859,17.398853302002]},{"componentType":5126,"type":"VEC3","bufferView":16,"byteOffset":0,"byteType":765,"count":656},{"componentType":5126,"type":"VEC2","bufferView":17,"byteOffset":0,"byteType":357,"count":629},{"componentType":5123,"type":"SCALAR","bufferView":18,"byteOffset":0,"byteType":614,"count":30},{"componentType":5126,"type":"VEC3","bufferView":19,"byteOffset":0,"byteType":800,"count":4,"min":[-3.03776407241821,-9.67650890350342,-7.15255737304688E-07],"max":[-0.024376392364502,-9.67650699615479,6.36132907867432]},{"componentType":5126,"type":"VEC3","bufferView":20,"byteOffset":0,"byteType":903,"count":16},{"componentType":5126,"type":"VEC2","bufferView":21,"byteOffset":0,"byteType":1082,"count":4},{"componentType":5123,"type":"SCALAR","bufferView":22,"byteOffset":0,"byteType":1996,"count":17},{"componentType":5126,"type":"VEC3","bufferView":23,"byteOffset":0,"byteType":836,"count":4,"min":[0.0234780311584473,-9.67650985717773,-7.15255737304688E-07],"max":[3.02400684356689,-9.6765079498291,6.36447477340698]},{"componentType":5126,"type":"VEC3","bufferView":24,"byteOffset":0,"byteType":646,"count":10},{"componentType":5126,"type":"VEC2","bufferView":25,"byteOffset":0,"byteType":1338,"count":4},{"componentType":5123,"type":"SCALAR","bufferView":26,"byteOffset":0,"byteType":1919,"count":73},{"componentType":5126,"type":"VEC3","bufferView":27,"byteOffset":0,"byteType":1807,"count":43,"min":[-3.05194091796875,-9.72632122039795,-0.028072303161025],"max":[-8.43796879053116E-05,-9.62669467926025,6.37752771377563]},{"componentType":5126,"type":"VEC3","bufferView":28,"byteOffset":0,"byteType":1288,"count":56},{"componentType":5126,"type":"VEC2","bufferView":29,"byteOffset":0,"byteType":545,"count":31},{"componentType":5123,"type":"SCALAR","bufferView":30,"byteOffset":0,"byteType":712,"count":73},{"componentType":5126,"type":"VEC3","bufferView":31,"byteOffset":0,"byteType":1265,"count":36,"min":[9.15303826332092E-05,-9.72632217407227,-0.028072303161025],"max":[3.04824113845825,-9.62669563293457,6.37752771377563]},{"componentType":5126,"type":"VEC3","bufferView":32,"byteOffset":0,"byteType":1886,"count":59},{"componentType":5126,"type":"VEC2","bufferView":33,"byteOffset":0,"byteType":1715,"count":28},{"componentType":5123,"type":"SCALAR","bufferView":34,"byteOffset":0,"byteType":1428,"count":6751},{"componentType":5126,"type":"VEC3","bufferView":35,"byteOffset":0,"byteType":839,"count":4336,"min":[-24.3672466278076,-9.98746490478516,-6.69280552756391E-07],"max":[24.3672466278076,9.98746490478516,20.9399929046631]},{"componentType":5126,"type":"VEC3","bufferView":36,"byteOffset":0,"byteType":1415,"count":4370},{"componentType":5126,"type":"VEC2","bufferView":37,"byteOffset":0,"byteType":1439,"count":4341},{"componentType":5123,"type":"SCALAR","bufferView":38,"byteOffset":0,"byteType":1569,"count":319},{"componentType":5126,"type":"VEC3","bufferView":39,"byteOffset":0,"byteType":1081,"count":138,"min":[-9.1057071685791,-5.69926834106445,-5.36250877380371],"max":[9.10570907592773,5.69926834106445,5.36251068115234]},{"componentType":5126,"type":"VEC3","bufferView":40,"byteOffset":0,"byteType":270,"count":160},{"componentType":5126,"type":"VEC2","bufferView":41,"byteOffset":0,"byteType":1037,"count":150},{"componentType":5123,"type":"SCALAR","bufferView":42,"byteOffset":0,"byteType":1619,"count":3614},{"componentType":5126,"type":"VEC3","bufferView":43,"byteOffset":0,"byteType":611,"count":882,"min":[-14.1453456878662,-4.98872900009155,-1.99785804748535],"max":[14.1453475952148,4.98872900009155,1.99785995483398]},{"componentType":5126,"type":"VEC3","bufferView":44,"byteOffset":0,"byteType":1398,"count":899},{"componentType":5126,"type":"VEC2","bufferView":45,"byteOffset":0,"byteType":1899,"count":870},{"componentType":5123,"type":"SCALAR","bufferView":46,"byteOffset":0,"byteType":1918,"count":2121},{"componentType":5126,"type":"VEC3","bufferView":47,"byteOffset":0,"byteType":1521,"count":402,"min":[-14.4620151519775,-7.11470794677734,-2.82055282592773],"max":[14.4620132446289,7.11470985412598,2.82055282592773]},{"componentType":5126,"type":"VEC3","bufferView":48,"byteOffset":0,"byteType":654,"count":422},{"componentType":5126,"type":"VEC2","bufferView":49,"byteOffset":0,"byteType":985,"count":401},{"componentType":5123,"type":"SCALAR","bufferView":50,"byteOffset":0,"byteType":1451,"count":2697},{"componentType":5126,"type":"VEC3","bufferView":51,"byteOffset":0,"byteType":1767,"count":836,"min":[-6.64403629302979,-6.12254524230957,-3.9372386932373],"max":[6.64403629302979,6.12254524230957,3.93724060058594]},{"componentType":5126,"type":"VEC3","bufferView":52,"byteOffset":0,"byteType":689,"count":874},{"componentType":5126,"type":"VEC2","bufferView":53,"byteOffset":0,"byteType":611,"count":841},{"componentType":5123,"type":"SCALAR","bufferView":54,"byteOffset":0,"byteType":1334,"count":75},{"componentType":5126,"type":"VEC3","bufferView":55,"byteOffset":0,"byteType":293,"count":31,"min":[-3.94800043106079,-0.0889064222574234,2.63153052330017],"max":[4.06131458282471,0.0889137834310532,3.59356260299683]},{"componentType":5126,"type":"VEC3","bufferView":56,"byteOffset":0,"byteType":1082,"count":43},{"componentType":5126,"type":"VEC2","bufferView":57,"byteOffset":0,"byteType":335,"count":36},{"componentType":5123,"type":"SCALAR","bufferView":58,"byteOffset":0,"byteType":1580,"count":28},{"componentType":5126,"type":"VEC3","bufferView":59,"byteOffset":0,"byteType":1475,"count":11,"min":[-3.93760204315186,-8.91175746917725,0.0],"max":[3.93760204315186,4.38270473480225,8.89069747924805]},{"componentType":5126,"type":"VEC3","bufferView":60,"byteOffset":0,"byteType":773,"count":32},{"componentType":5126,"type":"VEC2","bufferView":61,"byteOffset":0,"byteType":1100,"count":16},{"componentType":5123,"type":"SCALAR","bufferView":62,"byteOffset":0,"byteType":656,"count":94},{"componentType":5126,"type":"VEC3","bufferView":63,"byteOffset":0,"byteType":1459,"count":31,"min":[-23.8269729614258,-9.40833950042725,0.0],"max":[24.0107612609863,9.7843599319458,9.1961145401001]},{"componentType":5126,"type":"VEC3","bufferView":64,"byteOffset":0,"byteType":1724,"count":48},{"componentType":5126,"type":"VEC2","bufferView":65,"byteOffset":0,"byteType":881,"count":23}],"nodes":[{"name":"RootNode","translation":[0.0,0.0,0.0],"rotation":[0.0,0.0,0.0,1.0],"scale":[1.0,1.0,1.0],"children":[1,2,3,4,7,10,11,12,13,14,15,16]},{"name":"主楼_装饰三","translation":[-0.610567569732666,19.0974655151367,-0.483281970024109],"rotation":[-0.70710676908493,0.0,0.0,0.70710676908493],"scale":[1.0,1.0,1.0],"mesh":0},{"name":"主楼_灯","translation":[-0.0469436645507813,2.85874366760254,9.89514350891113],"rotation":[-0.70710676908493,0.0,0.0,0.70710676908493],"scale":[1.0,1.0,1.0],"mesh":11},{"name":"主楼_楼体","translation":[0.0,0.0,-0.0050044059753418],"rotation":[-0.70710676908493,0.0,0.0,0.70710676908493],"scale":[1.0,1.0,1.0],"mesh":1},{"name":"主楼_门_左","translation":[-8.392333984375E-05,-0.0280714016407728,9.72131443023682],"rotation":[-0.70710676908493,0.0,0.0,0.70710676908493],"scale":[1.0,1.0,1.0],"children":[5,6]},{"name":"门体","translation":[8.45193862915039E-05,9.92981052398682,0.0280709564685822],"rotation":[0.0,0.0,0.0,1.0],"scale":[1.0,1.0,1.0],"mesh":2},{"name":"门框","translation":[8.45193862915039E-05,9.72631931304932,0.0280709564685822],"rotation":[0.0,0.0,0.0,1.0],"scale":[1.0,1.0,1.0],"mesh":4},{"name":"主楼_门_右","translation":[9.1552734375E-05,-0.0280714016407728,9.72131633758545],"rotation":[-0.70710676908493,0.0,0.0,0.70710676908493],"scale":[1.0,1.0,1.0],"children":[8,9]},{"name":"门框32","translation":[-9.1552734375E-05,9.72632026672363,0.0280716344714165],"rotation":[0.0,0.0,0.0,1.0],"scale":[1.0,1.0,1.0],"mesh":5},{"name":"门体33","translation":[-9.1552734375E-05,9.92981147766113,0.0280716344714165],"rotation":[0.0,0.0,0.0,1.0],"scale":[1.0,1.0,1.0],"mesh":3},{"name":"metal_cube","translation":[0.0,0.0,0.0],"rotation":[-0.70710676908493,0.0,0.0,0.70710676908493],"scale":[1.0,1.0,1.0],"mesh":6},{"name":"主楼_装饰二","translation":[3.85836982727051,22.9205284118652,-0.262994766235352],"rotation":[-0.70710676908493,0.0,0.0,0.70710676908493],"scale":[1.0,1.0,1.0],"mesh":7},{"name":"主楼_装饰一","translation":[3.97376441955566,20.3984756469727,0.960873603820801],"rotation":[-0.70710676908493,0.0,0.0,0.70710676908493],"scale":[1.0,1.0,1.0],"mesh":8},{"name":"主楼_管道","translation":[4.97158241271973,19.3008117675781,0.746528625488281],"rotation":[-0.70710676908493,0.0,0.0,0.70710676908493],"scale":[1.0,1.0,1.0],"mesh":9},{"name":"主楼_内部","translation":[0.0129635334014893,0.0,0.227991938591003],"rotation":[-0.70710676908493,0.0,0.0,0.70710676908493],"scale":[1.0,1.0,1.0],"mesh":12},{"name":"metal_cylinder","translation":[0.989640235900879,20.4682884216309,-0.24677300453186],"rotation":[-0.70710676908493,0.0,0.0,0.70710676908493],"scale":[1.0,1.0,1.0],"mesh":10},{"name":"主楼_窗户","translation":[-0.0871133804321289,0.0,0.175147533416748],"rotation":[-0.70710676908493,0.0,0.0,0.70710676908493],"scale":[1.0,1.0,1.87048304080963],"mesh":13}],"animations":[{"name":"_OpenDoor_","channels":[{"sampler":0,"target":{"node":4,"path":"translation"}},{"sampler":1,"target":{"node":4,"path":"scale"}},{"sampler":2,"target":{"node":7,"path":"translation"}},{"sampler":3,"target":{"node":7,"path":"scale"}}],"samplers":[{"input":0,"interpolation":"LINEAR","output":1},{"input":0,"interpolation":"LINEAR","output":2},{"input":0,"interpolation":"LINEAR","output":3},{"input":0,"interpolation":"LINEAR","output":4}]},{"name":"_CloseDoor_","channels":[{"sampler":0,"target":{"node":4,"path":"translation"}},{"sampler":1,"target":{"node":4,"path":"scale"}},{"sampler":2,"target":{"node":7,"path":"translation"}},{"sampler":3,"target":{"node":7,"path":"scale"}}],"samplers":[{"input":5,"interpolation":"LINEAR","output":6},{"input":5,"interpolation":"LINEAR","output":7},{"input":5,"interpolation":"LINEAR","output":8},{"input":5,"interpolation":"LINEAR","output":9}]}],"asset":{"generator":"FBX2glTF","version":"2.0"},"scene":0,"scenes":[{"name":"Root Scene","nodes":[0]}],"samplers":[{}]}
