{"materials":[{"name":"Parking_spot_Basecolor_alpha","pbrMetallicRoughness":{"baseColorTexture":{"index":0,"texCoord":0},"baseColorFactor":[1.0,1.0,1.0,0.9],"metallicFactor":0.099999994,"roughnessFactor":1},"alphaMode":"BLEND"}],"images":[{"uri":"GTTITWU2PAZ2O1DQY3WYIEW2IY1122WDO.png"}],"textures":[{"name":"smd_1.png","sampler":0,"source":0}],"meshes":[{"name":"停车位","primitives":[{"material":0,"mode":4,"indices":0,"attributes":{"NORMAL":2,"POSITION":1,"TEXCOORD_0":3}}]}],"buffers":[{"byteLength":4843,"uri":"TJP12ZJOOHWWC12WOX9PCDHJNDQ40M9W0.bin"}],"bufferViews":[{"buffer":0,"target":34963,"byteLength":522,"byteOffset":0},{"buffer":0,"target":34962,"byteLength":1200,"byteOffset":564},{"buffer":0,"target":34962,"byteLength":1368,"byteOffset":1764},{"buffer":0,"target":34962,"byteLength":744,"byteOffset":3100}],"accessors":[{"componentType":5123,"type":"SCALAR","bufferView":0,"byteOffset":0,"byteType":1019,"count":261},{"componentType":5126,"type":"VEC3","bufferView":1,"byteOffset":0,"byteType":1627,"count":100,"min":[-12.829008102417,-2.78575134277344,-5.00008463859558E-05],"max":[12.829008102417,2.78575134277344,-5.00008463859558E-05]},{"componentType":5126,"type":"VEC3","bufferView":2,"byteOffset":0,"byteType":846,"count":114},{"componentType":5126,"type":"VEC2","bufferView":3,"byteOffset":0,"byteType":1497,"count":93}],"nodes":[{"name":"RootNode","translation":[0.0,0.0,0.0],"rotation":[0.0,0.0,0.0,1.0],"scale":[1.0,1.0,1.0],"children":[1]},{"name":"停车位","translation":[0.0,0.0200500003993511,0.0],"rotation":[-0.70710676908493,0.0,0.0,0.70710676908493],"scale":[1.0,1.0,1.0],"mesh":0}],"asset":{"generator":"FBX2glTF","version":"2.0"},"scene":0,"scenes":[{"name":"Root Scene","nodes":[0]}],"samplers":[{}]}
