{"materials":[{"name":"Box_Basecolor","pbrMetallicRoughness":{"baseColorTexture":{"index":0,"texCoord":0},"baseColorFactor":[1.0,1.0,1.0,1.0],"metallicFactor":0.099999994,"roughnessFactor":1},"alphaMode":"OPAQUE"}],"images":[{"uri":"PTW1WQH0WPT4VOU2QXUJSO1WORE2N5JU2.jpg"}],"textures":[{"name":"smd_1_f_png.jpg","sampler":0,"source":0}],"meshes":[{"name":"箱子","primitives":[{"material":0,"mode":4,"indices":0,"attributes":{"NORMAL":2,"POSITION":1,"TEXCOORD_0":3}}]}],"buffers":[{"byteLength":1839,"uri":"IQ7VY10WQTP2YT0747W4NEJDQ2W01X1US.bin"}],"bufferViews":[{"buffer":0,"target":34963,"byteLength":78,"byteOffset":0},{"buffer":0,"target":34962,"byteLength":240,"byteOffset":120},{"buffer":0,"target":34962,"byteLength":408,"byteOffset":360},{"buffer":0,"target":34962,"byteLength":104,"byteOffset":736}],"accessors":[{"componentType":5123,"type":"SCALAR","bufferView":0,"byteOffset":0,"byteType":557,"count":39},{"componentType":5126,"type":"VEC3","bufferView":1,"byteOffset":0,"byteType":893,"count":20,"min":[-0.433862090110779,-0.517498731613159,0.0],"max":[0.433862090110779,0.517498731613159,0.623885989189148]},{"componentType":5126,"type":"VEC3","bufferView":2,"byteOffset":0,"byteType":319,"count":34},{"componentType":5126,"type":"VEC2","bufferView":3,"byteOffset":0,"byteType":1441,"count":13}],"nodes":[{"name":"RootNode","translation":[0.0,0.0,0.0],"rotation":[0.0,0.0,0.0,1.0],"scale":[1.0,1.0,1.0],"children":[1]},{"name":"箱子","translation":[0.0,0.0556552410125732,0.0],"rotation":[-0.70710676908493,0.0,0.0,0.70710676908493],"scale":[1.0,1.0,1.0],"mesh":0}],"asset":{"generator":"FBX2glTF","version":"2.0"},"scene":0,"scenes":[{"name":"Root Scene","nodes":[0]}],"samplers":[{}]}
