{"materials":[{"name":"metal01_Basecolor","pbrMetallicRoughness":{"baseColorTexture":{"index":0,"texCoord":0},"baseColorFactor":[1.0,1.0,1.0,1.0],"metallicFactor":0.75,"roughnessFactor":0.3},"alphaMode":"OPAQUE"},{"name":"Dec01_Basecolor","pbrMetallicRoughness":{"baseColorTexture":{"index":1,"texCoord":0},"baseColorFactor":[1.0,1.0,1.0,1.0],"metallicFactor":0.75,"roughnessFactor":0.3},"alphaMode":"OPAQUE"}],"images":[{"uri":"7D04APIPOD6UCZ675Z2KTJ61TTJKCUNQE.jpg"},{"uri":"3D7IHY6M92QDOF4CP7DVQQ7U5E48YQ4NO.jpg"}],"textures":[{"name":"smd_2.jpg","sampler":0,"source":0},{"name":"smd_1_f_png.jpg","sampler":0,"source":1}],"meshes":[{"name":"metal_cylinder","primitives":[{"material":0,"mode":4,"indices":0,"attributes":{"NORMAL":2,"POSITION":1,"TEXCOORD_0":3}}]},{"name":"园区_装饰二","primitives":[{"material":1,"mode":4,"indices":4,"attributes":{"NORMAL":6,"POSITION":5,"TEXCOORD_0":7}}]}],"buffers":[{"byteLength":17643,"uri":"32KY748Y7JND57UQT72CQ9PWMHZOI32S2.bin"}],"bufferViews":[{"buffer":0,"target":34963,"byteLength":1758,"byteOffset":0},{"buffer":0,"target":34962,"byteLength":3348,"byteOffset":1908},{"buffer":0,"target":34962,"byteLength":3708,"byteOffset":5256},{"buffer":0,"target":34962,"byteLength":2232,"byteOffset":8904},{"buffer":0,"target":34963,"byteLength":738,"byteOffset":11136},{"buffer":0,"target":34962,"byteLength":1620,"byteOffset":12024},{"buffer":0,"target":34962,"byteLength":1980,"byteOffset":13644},{"buffer":0,"target":34962,"byteLength":1080,"byteOffset":15564}],"accessors":[{"componentType":5123,"type":"SCALAR","bufferView":0,"byteOffset":0,"byteType":1433,"count":879},{"componentType":5126,"type":"VEC3","bufferView":1,"byteOffset":0,"byteType":295,"count":279,"min":[-3.80561256408691,-3.80561065673828,-1.81006574630737],"max":[3.80561256408691,3.80561065673828,1.81006622314453]},{"componentType":5126,"type":"VEC3","bufferView":2,"byteOffset":0,"byteType":1149,"count":309},{"componentType":5126,"type":"VEC2","bufferView":3,"byteOffset":0,"byteType":1727,"count":279},{"componentType":5123,"type":"SCALAR","bufferView":4,"byteOffset":0,"byteType":738,"count":369},{"componentType":5126,"type":"VEC3","bufferView":5,"byteOffset":0,"byteType":313,"count":135,"min":[-3.62556123733521,-3.62556123733521,0.0],"max":[3.62556123733521,3.62556123733521,11.083869934082]},{"componentType":5126,"type":"VEC3","bufferView":6,"byteOffset":0,"byteType":1456,"count":165},{"componentType":5126,"type":"VEC2","bufferView":7,"byteOffset":0,"byteType":329,"count":135}],"nodes":[{"name":"RootNode","translation":[0.0,0.0,0.0],"rotation":[0.0,0.0,0.0,1.0],"scale":[1.0,1.0,1.0],"children":[1,2]},{"name":"metal_cylinder","translation":[0.0,9.43283271789551,-1.78813934326172E-06],"rotation":[-0.70710676908493,0.0,0.0,0.70710676908493],"scale":[1.0,1.0,1.0],"mesh":0},{"name":"园区_装饰二","translation":[0.0,0.0,-2.26497650146484E-06],"rotation":[-0.70710676908493,0.0,0.0,0.70710676908493],"scale":[1.0,1.0,1.0],"mesh":1}],"asset":{"generator":"FBX2glTF","version":"2.0"},"scene":0,"scenes":[{"name":"Root Scene","nodes":[0]}],"samplers":[{}]}
