{"materials":[{"name":"Shelf_Basecolor","pbrMetallicRoughness":{"baseColorTexture":{"index":0,"texCoord":0},"baseColorFactor":[1.0,1.0,1.0,1.0],"metallicFactor":0.7,"roughnessFactor":0.3},"alphaMode":"OPAQUE"}],"images":[{"uri":"EUNKTU1VQT8CMAJSWD7US2JYQGFDVR92V.jpg"}],"textures":[{"name":"smd_1_f_png.jpg","sampler":0,"source":0}],"meshes":[{"name":"货架","primitives":[{"material":0,"mode":4,"indices":0,"attributes":{"NORMAL":2,"POSITION":1,"TEXCOORD_0":3}}]}],"buffers":[{"byteLength":9539,"uri":"4E66TET1WROUOOO8KTW8NMQ2W2982RQU2.bin"}],"bufferViews":[{"buffer":0,"target":34963,"byteLength":738,"byteOffset":0},{"buffer":0,"target":34962,"byteLength":2880,"byteOffset":780},{"buffer":0,"target":34962,"byteLength":3048,"byteOffset":3660},{"buffer":0,"target":34962,"byteLength":1864,"byteOffset":6676}],"accessors":[{"componentType":5123,"type":"SCALAR","bufferView":0,"byteOffset":0,"byteType":1628,"count":369},{"componentType":5126,"type":"VEC3","bufferView":1,"byteOffset":0,"byteType":1727,"count":240,"min":[-1.40785586833954,-4.33194398880005,-0.73544454574585],"max":[1.40785574913025,4.33194398880005,0.73544454574585]},{"componentType":5126,"type":"VEC3","bufferView":2,"byteOffset":0,"byteType":1462,"count":254},{"componentType":5126,"type":"VEC2","bufferView":3,"byteOffset":0,"byteType":1183,"count":233}],"nodes":[{"name":"RootNode","translation":[0.0,0.0,0.0],"rotation":[0.0,0.0,0.0,1.0],"scale":[1.0,1.0,1.0],"children":[1]},{"name":"货架","translation":[-9.5367431640625E-07,0.73544454574585,0.0],"rotation":[-0.70710676908493,0.0,0.0,0.70710676908493],"scale":[1.0,1.0,1.0],"mesh":0}],"asset":{"generator":"FBX2glTF","version":"2.0"},"scene":0,"scenes":[{"name":"Root Scene","nodes":[0]}],"samplers":[{}]}
