{"materials":[{"name":"Pipeline_Basecolor","pbrMetallicRoughness":{"baseColorTexture":{"index":0,"texCoord":0},"baseColorFactor":[1.0,1.0,1.0,1.0],"metallicFactor":0.099999994,"roughnessFactor":0.0},"alphaMode":"OPAQUE"},{"name":"Dec_Basecolor","pbrMetallicRoughness":{"baseColorTexture":{"index":1,"texCoord":0},"baseColorFactor":[1.0,1.0,1.0,1.0],"metallicFactor":0.099999994,"roughnessFactor":0.6},"alphaMode":"OPAQUE"}],"images":[{"uri":"7D04APIPOD6UCZ675Z2KTJ61TTJKCUNQE.jpg"},{"uri":"OJ027WK4UYSG8DN0XJNWIOYKROTUYZ7S5.jpg"}],"textures":[{"name":"smd_2.jpg","sampler":0,"source":0},{"name":"smd_1_f_png.jpg","sampler":0,"source":1}],"meshes":[{"name":"装饰物","primitives":[{"material":0,"mode":4,"indices":0,"attributes":{"NORMAL":2,"POSITION":1,"TEXCOORD_0":3}}]},{"name":"管道","primitives":[{"material":1,"mode":4,"indices":4,"attributes":{"NORMAL":6,"POSITION":5,"TEXCOORD_0":7}}]}],"buffers":[{"byteLength":27003,"uri":"J2DUOZJ2TQ6VOF602APKY94UX178YUZQG.bin"}],"bufferViews":[{"buffer":0,"target":34963,"byteLength":1090,"byteOffset":0},{"buffer":0,"target":34962,"byteLength":1440,"byteOffset":1152},{"buffer":0,"target":34962,"byteLength":1596,"byteOffset":2592},{"buffer":0,"target":34962,"byteLength":944,"byteOffset":4168},{"buffer":0,"target":34963,"byteLength":2486,"byteOffset":5112},{"buffer":0,"target":34962,"byteLength":6744,"byteOffset":7740},{"buffer":0,"target":34962,"byteLength":6960,"byteOffset":14484},{"buffer":0,"target":34962,"byteLength":4568,"byteOffset":21436}],"accessors":[{"componentType":5123,"type":"SCALAR","bufferView":0,"byteOffset":0,"byteType":1321,"count":545},{"componentType":5126,"type":"VEC3","bufferView":1,"byteOffset":0,"byteType":1147,"count":120,"min":[-1.65957355499268,-0.694038212299347,0.74383682012558],"max":[0.872941255569458,0.989401757717133,1.21804440021515]},{"componentType":5126,"type":"VEC3","bufferView":2,"byteOffset":0,"byteType":464,"count":133},{"componentType":5126,"type":"VEC2","bufferView":3,"byteOffset":0,"byteType":713,"count":118},{"componentType":5123,"type":"SCALAR","bufferView":4,"byteOffset":0,"byteType":298,"count":1243},{"componentType":5126,"type":"VEC3","bufferView":5,"byteOffset":0,"byteType":1945,"count":562,"min":[0.118714213371277,-0.716437101364136,-0.44936403632164],"max":[2.93239307403564,0.716437101364136,0.92015677690506]},{"componentType":5126,"type":"VEC3","bufferView":6,"byteOffset":0,"byteType":1198,"count":580},{"componentType":5126,"type":"VEC2","bufferView":7,"byteOffset":0,"byteType":1937,"count":571}],"nodes":[{"name":"RootNode","translation":[0.0,0.0,0.0],"rotation":[0.0,0.0,0.0,1.0],"scale":[1.0,1.0,1.0],"children":[1]},{"name":"Group001","translation":[0.0,0.684760391712189,0.0],"rotation":[-0.70710676908493,0.0,0.0,0.70710676908493],"scale":[1.0,1.0,1.0],"children":[2,3]},{"name":"装饰物","translation":[0.379875183105469,-0.134395599365234,-0.723869562149048],"rotation":[0.0,0.0,0.0,1.0],"scale":[1.0,1.0,1.0],"mesh":0},{"name":"管道","translation":[-1.52555084228516,-0.138568878173828,-0.235396295785904],"rotation":[0.0,0.0,0.0,1.0],"scale":[1.0,1.0,1.0],"mesh":1}],"asset":{"generator":"FBX2glTF","version":"2.0"},"scene":0,"scenes":[{"name":"Root Scene","nodes":[0]}],"samplers":[{}]}
