{
  "materials": [
    {
      "name": "Material__31",
      "pbrMetallicRoughness": {
        "baseColorTexture": {
          "index": 0,
          "texCoord": 0
        },
        "baseColorFactor": [
          1.0,
          1.0,
          1.0,
          1.0
        ],
        "metallicFactor": 0.099999994,
        "roughnessFactor": 1
      },
      "alphaMode": "OPAQUE"
    },
    {
      "name": "Material__31boli_alpha",
      "pbrMetallicRoughness": {
        "baseColorTexture": {
          "index": 1,
          "texCoord": 0
        },
        "baseColorFactor": [
          1.0,
          1.0,
          1.0,
          0.5
        ],
        "metallicFactor": 0.0,
        "roughnessFactor": 0.0
      },
      "alphaMode": "BLEND"
    }
  ],
  "images": [
    {
      "uri": "1W7497WDG7ZUPEYKD966P7WQR7UNQO41Y.jpg"
    },
    {
      "uri": "J8DC5AJ1DA0IE877MFDOTO4VI81141NWR.png"
    }
  ],
  "textures": [
    {
      "name": "smd_1_f_png.jpg",
      "sampler": 0,
      "source": 0
    },
    {
      "name": "smd_1.png",
      "sampler": 0,
      "source": 1
    }
  ],
  "meshes": [
    {
      "name": "Lo-3米玻璃墙_01",
      "primitives": [
        {
          "material": 0,
          "mode": 4,
          "indices": 0,
          "attributes": {
            "NORMAL": 2,
            "POSITION": 1,
            "TEXCOORD_0": 3,
            "TEXCOORD_1": 4
          }
        }
      ]
    },
    {
      "name": "Lo-Body玻璃_01",
      "primitives": [
        {
          "material": 1,
          "mode": 4,
          "indices": 5,
          "attributes": {
            "NORMAL": 7,
            "POSITION": 6,
            "TEXCOORD_0": 8,
            "TEXCOORD_1": 9
          }
        }
      ]
    }
  ],
  "buffers": [
    {
      "byteLength": 4783,
      "uri": "102YOU7DGUZ6CT62DA40RO7NQ9Z8CW2IE.bin"
    }
  ],
  "bufferViews": [
    {
      "buffer": 0,
      "target": 34963,
      "byteLength": 224,
      "byteOffset": 0
    },
    {
      "buffer": 0,
      "target": 34962,
      "byteLength": 804,
      "byteOffset": 276
    },
    {
      "buffer": 0,
      "target": 34962,
      "byteLength": 948,
      "byteOffset": 1080
    },
    {
      "buffer": 0,
      "target": 34962,
      "byteLength": 512,
      "byteOffset": 2008
    },
    {
      "buffer": 0,
      "target": 34962,
      "byteLength": 672,
      "byteOffset": 2520
    },
    {
      "buffer": 0,
      "target": 34963,
      "byteLength": 22,
      "byteOffset": 3122
    },
    {
      "buffer": 0,
      "target": 34962,
      "byteLength": 228,
      "byteOffset": 3144
    },
    {
      "buffer": 0,
      "target": 34962,
      "byteLength": 144,
      "byteOffset": 3384
    },
    {
      "buffer": 0,
      "target": 34962,
      "byteLength": 160,
      "byteOffset": 3528
    },
    {
      "buffer": 0,
      "target": 34962,
      "byteLength": 88,
      "byteOffset": 3696
    }
  ],
  "accessors": [
    {
      "componentType": 5123,
      "type": "SCALAR",
      "bufferView": 0,
      "byteOffset": 0,
      "byteType": 1262,
      "count": 112
    },
    {
      "componentType": 5126,
      "type": "VEC3",
      "bufferView": 1,
      "byteOffset": 0,
      "byteType": 1441,
      "count": 67,
      "min": [
        -0.75,
        -0.0394741706550121,
        0.0
      ],
      "max": [
        0.75,
        0.039474181830883,
        3.00034379959106
      ]
    },
    {
      "componentType": 5126,
      "type": "VEC3",
      "bufferView": 2,
      "byteOffset": 0,
      "byteType": 434,
      "count": 79
    },
    {
      "componentType": 5126,
      "type": "VEC2",
      "bufferView": 3,
      "byteOffset": 0,
      "byteType": 957,
      "count": 64
    },
    {
      "componentType": 5126,
      "type": "VEC2",
      "bufferView": 4,
      "byteOffset": 0,
      "byteType": 425,
      "count": 84
    },
    {
      "componentType": 5123,
      "type": "SCALAR",
      "bufferView": 5,
      "byteOffset": 0,
      "byteType": 1155,
      "count": 11
    },
    {
      "componentType": 5126,
      "type": "VEC3",
      "bufferView": 6,
      "byteOffset": 0,
      "byteType": 1482,
      "count": 19,
      "min": [
        -0.75,
        -0.0100000333040953,
        0.124309077858925
      ],
      "max": [
        0.75,
        0.0100000351667404,
        2.9821400642395
      ]
    },
    {
      "componentType": 5126,
      "type": "VEC3",
      "bufferView": 7,
      "byteOffset": 0,
      "byteType": 901,
      "count": 12
    },
    {
      "componentType": 5126,
      "type": "VEC2",
      "bufferView": 8,
      "byteOffset": 0,
      "byteType": 1625,
      "count": 20
    },
    {
      "componentType": 5126,
      "type": "VEC2",
      "bufferView": 9,
      "byteOffset": 0,
      "byteType": 1007,
      "count": 11
    }
  ],
  "nodes": [
    {
      "name": "RootNode",
      "translation": [
        0.0,
        0.0,
        0.0
      ],
      "rotation": [
        0.0,
        0.0,
        0.0,
        1.0
      ],
      "scale": [
        1.0,
        1.0,
        1.0
      ],
      "children": [
        1,
        2
      ]
    },
    {
      "name": "Lo-3米玻璃墙_01",
      "translation": [
        0.0,
        0.0,
        -2.76958178613285E-10
      ],
      "rotation": [
        -0.70710676908493,
        0.0,
        0.0,
        0.70710676908493
      ],
      "scale": [
        1.0,
        1.0,
        1.0
      ],
      "mesh": 0
    },
    {
      "name": "Lo-Body玻璃_01",
      "translation": [
        0.0,
        0.0,
        -2.76958178613285E-10
      ],
      "rotation": [
        -0.70710676908493,
        0.0,
        0.0,
        0.70710676908493
      ],
      "scale": [
        1.0,
        1.0,
        1.0
      ],
      "mesh": 1
    }
  ],
  "asset": {
    "generator": "FBX2glTF",
    "version": "2.0"
  },
  "scene": 0,
  "scenes": [
    {
      "name": "Root Scene",
      "nodes": [
        0
      ]
    }
  ],
  "samplers": [
    {}
  ]
}
