{"materials":[{"name":"Cabinet_Basecolor","pbrMetallicRoughness":{"baseColorTexture":{"index":0,"texCoord":0},"baseColorFactor":[1.0,1.0,1.0,1.0],"metallicFactor":0.099999994,"roughnessFactor":0.3},"alphaMode":"OPAQUE"}],"images":[{"uri":"MU8W7Q9PNR7PC5ZN04ZP0OT12YFYNGUUO.jpg"}],"textures":[{"name":"smd_1_f_png.jpg","sampler":0,"source":0}],"meshes":[{"name":"柜门","primitives":[{"material":0,"mode":4,"indices":4,"attributes":{"NORMAL":6,"POSITION":5,"TEXCOORD_0":7}}]},{"name":"柜体","primitives":[{"material":0,"mode":4,"indices":8,"attributes":{"NORMAL":10,"POSITION":9,"TEXCOORD_0":11}}]}],"buffers":[{"byteLength":7343,"uri":"E810QQ6KQ3WN2QTUWYWU1P70NXU1VC8UU.bin"}],"bufferViews":[{"buffer":0,"byteLength":144,"byteOffset":0},{"buffer":0,"byteLength":432,"byteOffset":208},{"buffer":0,"byteLength":176,"byteOffset":640},{"buffer":0,"byteLength":368,"byteOffset":952},{"buffer":0,"target":34963,"byteLength":138,"byteOffset":1320},{"buffer":0,"target":34962,"byteLength":360,"byteOffset":1560},{"buffer":0,"target":34962,"byteLength":564,"byteOffset":1920},{"buffer":0,"target":34962,"byteLength":256,"byteOffset":2464},{"buffer":0,"target":34963,"byteLength":376,"byteOffset":2720},{"buffer":0,"target":34962,"byteLength":1116,"byteOffset":3188},{"buffer":0,"target":34962,"byteLength":1344,"byteOffset":4304},{"buffer":0,"target":34962,"byteLength":728,"byteOffset":5616}],"accessors":[{"componentType":5126,"type":"SCALAR","bufferView":0,"byteOffset":0,"byteType":1778,"count":36,"min":[0.0],"max":[1.29166662693024]},{"componentType":5126,"type":"VEC4","bufferView":1,"byteOffset":0,"byteType":1769,"count":27},{"componentType":5126,"type":"SCALAR","bufferView":2,"byteOffset":0,"byteType":268,"count":44,"min":[-0.0416634082794189],"max":[1.33333671092987]},{"componentType":5126,"type":"VEC4","bufferView":3,"byteOffset":0,"byteType":1921,"count":23},{"componentType":5123,"type":"SCALAR","bufferView":4,"byteOffset":0,"byteType":900,"count":69},{"componentType":5126,"type":"VEC3","bufferView":5,"byteOffset":0,"byteType":217,"count":30,"min":[5.36441802978516E-07,-0.346447676420212,-0.469586730003357],"max":[0.34289875626564,0.014918714761734,0.0]},{"componentType":5126,"type":"VEC3","bufferView":6,"byteOffset":0,"byteType":1375,"count":47},{"componentType":5126,"type":"VEC2","bufferView":7,"byteOffset":0,"byteType":773,"count":32},{"componentType":5123,"type":"SCALAR","bufferView":8,"byteOffset":0,"byteType":1578,"count":188},{"componentType":5126,"type":"VEC3","bufferView":9,"byteOffset":0,"byteType":613,"count":93,"min":[-0.220763206481934,0.09203040599823,0.0],"max":[0.220763206481934,0.691444873809814,1.35789799690247]},{"componentType":5126,"type":"VEC3","bufferView":10,"byteOffset":0,"byteType":1027,"count":112},{"componentType":5126,"type":"VEC2","bufferView":11,"byteOffset":0,"byteType":285,"count":91}],"nodes":[{"name":"RootNode","translation":[0.0,0.0,0.0],"rotation":[0.0,0.0,0.0,1.0],"scale":[1.0,1.0,1.0],"children":[1,2]},{"name":"柜门","translation":[-0.171451568603516,1.33540952205658,-0.0571699142456055],"rotation":[-0.70710676908493,0.0,0.0,0.70710676908493],"scale":[1.0,1.0,1.0],"mesh":0},{"name":"柜体","translation":[0.0,0.0,0.391737937927246],"rotation":[-0.70710676908493,0.0,0.0,0.70710676908493],"scale":[1.0,1.0,1.0],"mesh":1}],"animations":[{"name":"_OpenDoor_","channels":[{"sampler":0,"target":{"node":1,"path":"rotation"}}],"samplers":[{"input":0,"interpolation":"LINEAR","output":1}]},{"name":"_CloseDoor_","channels":[{"sampler":0,"target":{"node":1,"path":"rotation"}}],"samplers":[{"input":2,"interpolation":"LINEAR","output":3}]}],"asset":{"generator":"FBX2glTF","version":"2.0"},"scene":0,"scenes":[{"name":"Root Scene","nodes":[0]}],"samplers":[{}]}
