{"materials":[{"name":"金属","pbrMetallicRoughness":{"baseColorTexture":{"index":0,"texCoord":0},"baseColorFactor":[1.0,1.0,1.0,1.0],"metallicFactor":0,"roughnessFactor":0.0},"alphaMode":"OPAQUE"},{"name":"Material__7","pbrMetallicRoughness":{"baseColorTexture":{"index":1,"texCoord":0},"baseColorFactor":[1.0,1.0,1.0,1.0],"metallicFactor":0.0,"roughnessFactor":0.399999976},"alphaMode":"OPAQUE"},{"name":"Car_Body01_Basecolor","pbrMetallicRoughness":{"baseColorTexture":{"index":2,"texCoord":0},"baseColorFactor":[1.0,1.0,1.0,1.0],"metallicFactor":0.5,"roughnessFactor":0.399999976},"alphaMode":"OPAQUE"},{"name":"Car_Body02_Basecolor","pbrMetallicRoughness":{"baseColorTexture":{"index":3,"texCoord":0},"baseColorFactor":[1.0,1.0,1.0,1.0],"metallicFactor":0,"roughnessFactor":0.7},"alphaMode":"OPAQUE"},{"name":"金属1","pbrMetallicRoughness":{"baseColorFactor":[0.09803922,0.09803922,0.09803922,1.0],"metallicFactor":0.0,"roughnessFactor":0.0},"alphaMode":"OPAQUE"}],"images":[{"uri":"I27Y05O0WGZWQDW1CCHJ72C98O2WT8E3P.jpg"},{"uri":"WOA2WGHYNOF2UGE82HYZU6DHJSQT4QIQP.jpg"},{"uri":"NYE2QP7POPJ4HSQ3DVG1TVD8J2PU4V4T4.jpg"},{"uri":"NIHNWRHNI594HOEO08IJD1MJD1MQ46P70.jpg"}],"textures":[{"name":"smd_4_f_png.jpg","sampler":0,"source":0},{"name":"smd_2_f_png.jpg","sampler":0,"source":1},{"name":"smd_1_f_png.jpg","sampler":0,"source":2},{"name":"smd_3_f_png.jpg","sampler":0,"source":3}],"meshes":[{"name":"车体","primitives":[{"material":0,"mode":4,"indices":4,"attributes":{"NORMAL":6,"POSITION":5,"TEXCOORD_0":7}},{"material":1,"mode":4,"indices":8,"attributes":{"NORMAL":10,"POSITION":9,"TEXCOORD_0":11}},{"material":2,"mode":4,"indices":24,"attributes":{"NORMAL":26,"POSITION":25,"TEXCOORD_0":27}},{"material":3,"mode":4,"indices":32,"attributes":{"NORMAL":34,"POSITION":33,"TEXCOORD_0":35}},{"material":4,"mode":4,"indices":44,"attributes":{"NORMAL":46,"POSITION":45,"TEXCOORD_0":47}}]},{"name":"前轮","primitives":[{"material":1,"mode":4,"indices":12,"attributes":{"NORMAL":14,"POSITION":13,"TEXCOORD_0":15}},{"material":3,"mode":4,"indices":36,"attributes":{"NORMAL":38,"POSITION":37,"TEXCOORD_0":39}},{"material":4,"mode":4,"indices":48,"attributes":{"NORMAL":50,"POSITION":49,"TEXCOORD_0":51}}]},{"name":"后轮","primitives":[{"material":1,"mode":4,"indices":16,"attributes":{"NORMAL":18,"POSITION":17,"TEXCOORD_0":19}},{"material":3,"mode":4,"indices":40,"attributes":{"NORMAL":42,"POSITION":41,"TEXCOORD_0":43}},{"material":4,"mode":4,"indices":52,"attributes":{"NORMAL":54,"POSITION":53,"TEXCOORD_0":55}}]},{"name":"叉子","primitives":[{"material":1,"mode":4,"indices":20,"attributes":{"NORMAL":22,"POSITION":21,"TEXCOORD_0":23}},{"material":2,"mode":4,"indices":28,"attributes":{"NORMAL":30,"POSITION":29,"TEXCOORD_0":31}},{"material":4,"mode":4,"indices":56,"attributes":{"NORMAL":58,"POSITION":57,"TEXCOORD_0":59}}]}],"buffers":[{"byteLength":1646099,"uri":"QRTHD22WP7CUDKQJJQP97KOUJN2TWQE94.bin"}],"bufferViews":[{"buffer":0,"byteLength":156,"byteOffset":0},{"buffer":0,"byteLength":288,"byteOffset":224},{"buffer":0,"byteLength":168,"byteOffset":512},{"buffer":0,"byteLength":300,"byteOffset":756},{"buffer":0,"target":34963,"byteLength":12340,"byteOffset":1056},{"buffer":0,"target":34962,"byteLength":67992,"byteOffset":13548},{"buffer":0,"target":34962,"byteLength":68220,"byteOffset":81540},{"buffer":0,"target":34962,"byteLength":45408,"byteOffset":149752},{"buffer":0,"target":34963,"byteLength":10360,"byteOffset":195160},{"buffer":0,"target":34962,"byteLength":30672,"byteOffset":205612},{"buffer":0,"target":34962,"byteLength":30888,"byteOffset":236284},{"buffer":0,"target":34962,"byteLength":20440,"byteOffset":267144},{"buffer":0,"target":34963,"byteLength":7878,"byteOffset":287584},{"buffer":0,"target":34962,"byteLength":13356,"byteOffset":295540},{"buffer":0,"target":34962,"byteLength":13596,"byteOffset":308896},{"buffer":0,"target":34962,"byteLength":8880,"byteOffset":322456},{"buffer":0,"target":34963,"byteLength":7874,"byteOffset":331336},{"buffer":0,"target":34962,"byteLength":13368,"byteOffset":339352},{"buffer":0,"target":34962,"byteLength":13692,"byteOffset":352720},{"buffer":0,"target":34962,"byteLength":8912,"byteOffset":366368},{"buffer":0,"target":34963,"byteLength":828,"byteOffset":375280},{"buffer":0,"target":34962,"byteLength":3252,"byteOffset":376180},{"buffer":0,"target":34962,"byteLength":3420,"byteOffset":379432},{"buffer":0,"target":34962,"byteLength":2160,"byteOffset":382832},{"buffer":0,"target":34963,"byteLength":17714,"byteOffset":384992},{"buffer":0,"target":34962,"byteLength":82488,"byteOffset":402848},{"buffer":0,"target":34962,"byteLength":82776,"byteOffset":485336},{"buffer":0,"target":34962,"byteLength":55072,"byteOffset":568024},{"buffer":0,"target":34963,"byteLength":3590,"byteOffset":623096},{"buffer":0,"target":34962,"byteLength":11460,"byteOffset":626768},{"buffer":0,"target":34962,"byteLength":11652,"byteOffset":638228},{"buffer":0,"target":34962,"byteLength":7632,"byteOffset":649856},{"buffer":0,"target":34963,"byteLength":1672,"byteOffset":657488},{"buffer":0,"target":34962,"byteLength":7572,"byteOffset":659312},{"buffer":0,"target":34962,"byteLength":7872,"byteOffset":666884},{"buffer":0,"target":34962,"byteLength":5080,"byteOffset":674724},{"buffer":0,"target":34963,"byteLength":19224,"byteOffset":679804},{"buffer":0,"target":34962,"byteLength":76644,"byteOffset":699160},{"buffer":0,"target":34962,"byteLength":76944,"byteOffset":775804},{"buffer":0,"target":34962,"byteLength":51096,"byteOffset":852708},{"buffer":0,"target":34963,"byteLength":19206,"byteOffset":903804},{"buffer":0,"target":34962,"byteLength":114108,"byteOffset":923060},{"buffer":0,"target":34962,"byteLength":114252,"byteOffset":1037168},{"buffer":0,"target":34962,"byteLength":76064,"byteOffset":1151404},{"buffer":0,"target":34963,"byteLength":23760,"byteOffset":1227468},{"buffer":0,"target":34962,"byteLength":92856,"byteOffset":1251360},{"buffer":0,"target":34962,"byteLength":93120,"byteOffset":1344216},{"buffer":0,"target":34962,"byteLength":61928,"byteOffset":1437308},{"buffer":0,"target":34963,"byteLength":7884,"byteOffset":1499236},{"buffer":0,"target":34962,"byteLength":21612,"byteOffset":1507192},{"buffer":0,"target":34962,"byteLength":21780,"byteOffset":1528804},{"buffer":0,"target":34962,"byteLength":14400,"byteOffset":1550564},{"buffer":0,"target":34963,"byteLength":7898,"byteOffset":1564964},{"buffer":0,"target":34962,"byteLength":25320,"byteOffset":1573004},{"buffer":0,"target":34962,"byteLength":25680,"byteOffset":1598324},{"buffer":0,"target":34962,"byteLength":16912,"byteOffset":1623892},{"buffer":0,"target":34963,"byteLength":478,"byteOffset":1640804},{"buffer":0,"target":34962,"byteLength":1296,"byteOffset":1641404},{"buffer":0,"target":34962,"byteLength":1572,"byteOffset":1642700},{"buffer":0,"target":34962,"byteLength":864,"byteOffset":1644236}],"accessors":[{"componentType":5126,"type":"SCALAR","bufferView":0,"byteOffset":0,"byteType":937,"count":39,"min":[0.0],"max":[1.29166662693024]},{"componentType":5126,"type":"VEC3","bufferView":1,"byteOffset":0,"byteType":1165,"count":24},{"componentType":5126,"type":"SCALAR","bufferView":2,"byteOffset":0,"byteType":848,"count":42,"min":[-0.0416634082794189],"max":[1.33333671092987]},{"componentType":5126,"type":"VEC3","bufferView":3,"byteOffset":0,"byteType":1359,"count":25},{"componentType":5123,"type":"SCALAR","bufferView":4,"byteOffset":0,"byteType":1158,"count":6170},{"componentType":5126,"type":"VEC3","bufferView":5,"byteOffset":0,"byteType":1439,"count":5666,"min":[-0.322585374116898,-1.45450186729431,0.350030541419983],"max":[0.322585374116898,-1.08336400985718,3.09057712554932]},{"componentType":5126,"type":"VEC3","bufferView":6,"byteOffset":0,"byteType":1956,"count":5685},{"componentType":5126,"type":"VEC2","bufferView":7,"byteOffset":0,"byteType":1693,"count":5676},{"componentType":5123,"type":"SCALAR","bufferView":8,"byteOffset":0,"byteType":358,"count":5180},{"componentType":5126,"type":"VEC3","bufferView":9,"byteOffset":0,"byteType":1839,"count":2556,"min":[-0.684970021247864,-1.12970459461212,0.791922271251678],"max":[0.684970021247864,1.35460805892944,2.69812536239624]},{"componentType":5126,"type":"VEC3","bufferView":10,"byteOffset":0,"byteType":1711,"count":2574},{"componentType":5126,"type":"VEC2","bufferView":11,"byteOffset":0,"byteType":1505,"count":2555},{"componentType":5123,"type":"SCALAR","bufferView":12,"byteOffset":0,"byteType":227,"count":3939},{"componentType":5126,"type":"VEC3","bufferView":13,"byteOffset":0,"byteType":1815,"count":1113,"min":[-0.905375599861145,-0.19192162156105,-0.196200847625732],"max":[0.905375599861145,0.191921606659889,0.196200847625732]},{"componentType":5126,"type":"VEC3","bufferView":14,"byteOffset":0,"byteType":619,"count":1133},{"componentType":5126,"type":"VEC2","bufferView":15,"byteOffset":0,"byteType":1845,"count":1110},{"componentType":5123,"type":"SCALAR","bufferView":16,"byteOffset":0,"byteType":1905,"count":3937},{"componentType":5126,"type":"VEC3","bufferView":17,"byteOffset":0,"byteType":891,"count":1114,"min":[-0.90537565946579,-0.191925048828125,-0.196200847625732],"max":[0.90537565946579,0.191924810409546,0.196200728416443]},{"componentType":5126,"type":"VEC3","bufferView":18,"byteOffset":0,"byteType":1977,"count":1141},{"componentType":5126,"type":"VEC2","bufferView":19,"byteOffset":0,"byteType":1123,"count":1114},{"componentType":5123,"type":"SCALAR","bufferView":20,"byteOffset":0,"byteType":1230,"count":414},{"componentType":5126,"type":"VEC3","bufferView":21,"byteOffset":0,"byteType":241,"count":271,"min":[-0.26637727022171,-0.242339417338371,-0.100290223956108],"max":[0.266377180814743,0.00183109508361667,0.182800099253654]},{"componentType":5126,"type":"VEC3","bufferView":22,"byteOffset":0,"byteType":1606,"count":285},{"componentType":5126,"type":"VEC2","bufferView":23,"byteOffset":0,"byteType":1247,"count":270},{"componentType":5123,"type":"SCALAR","bufferView":24,"byteOffset":0,"byteType":510,"count":8857},{"componentType":5126,"type":"VEC3","bufferView":25,"byteOffset":0,"byteType":427,"count":6874,"min":[-0.938662588596344,-1.46377182006836,0.117614150047302],"max":[0.938662588596344,1.46377205848694,3.18016886711121]},{"componentType":5126,"type":"VEC3","bufferView":26,"byteOffset":0,"byteType":1942,"count":6898},{"componentType":5126,"type":"VEC2","bufferView":27,"byteOffset":0,"byteType":1245,"count":6884},{"componentType":5123,"type":"SCALAR","bufferView":28,"byteOffset":0,"byteType":1627,"count":1795},{"componentType":5126,"type":"VEC3","bufferView":29,"byteOffset":0,"byteType":1897,"count":955,"min":[-0.876207411289215,-1.89241063594818,-0.323318868875504],"max":[0.876207232475281,-0.130543380975723,0.543689608573914]},{"componentType":5126,"type":"VEC3","bufferView":30,"byteOffset":0,"byteType":271,"count":971},{"componentType":5126,"type":"VEC2","bufferView":31,"byteOffset":0,"byteType":635,"count":954},{"componentType":5123,"type":"SCALAR","bufferView":32,"byteOffset":0,"byteType":645,"count":836},{"componentType":5126,"type":"VEC3","bufferView":33,"byteOffset":0,"byteType":681,"count":631,"min":[-0.266377240419388,-0.603873491287231,1.3775908946991],"max":[0.266377240419388,-0.150498151779175,1.7951283454895]},{"componentType":5126,"type":"VEC3","bufferView":34,"byteOffset":0,"byteType":1833,"count":656},{"componentType":5126,"type":"VEC2","bufferView":35,"byteOffset":0,"byteType":1731,"count":635},{"componentType":5123,"type":"SCALAR","bufferView":36,"byteOffset":0,"byteType":472,"count":9612},{"componentType":5126,"type":"VEC3","bufferView":37,"byteOffset":0,"byteType":1347,"count":6387,"min":[-0.903663098812103,-0.370965152978897,-0.37923526763916],"max":[0.903663098812103,0.370965182781219,0.379235148429871]},{"componentType":5126,"type":"VEC3","bufferView":38,"byteOffset":0,"byteType":1123,"count":6412},{"componentType":5126,"type":"VEC2","bufferView":39,"byteOffset":0,"byteType":947,"count":6387},{"componentType":5123,"type":"SCALAR","bufferView":40,"byteOffset":0,"byteType":1515,"count":9603},{"componentType":5126,"type":"VEC3","bufferView":41,"byteOffset":0,"byteType":1137,"count":9509,"min":[-0.903663277626038,-0.370968103408813,-0.379235148429871],"max":[0.903663277626038,0.370968341827393,0.379235208034515]},{"componentType":5126,"type":"VEC3","bufferView":42,"byteOffset":0,"byteType":1590,"count":9521},{"componentType":5126,"type":"VEC2","bufferView":43,"byteOffset":0,"byteType":1127,"count":9508},{"componentType":5123,"type":"SCALAR","bufferView":44,"byteOffset":0,"byteType":1394,"count":11880},{"componentType":5126,"type":"VEC3","bufferView":45,"byteOffset":0,"byteType":521,"count":7738,"min":[-0.794829666614532,-0.225823163986206,0.154000759124756],"max":[0.794829666614532,1.41683912277222,1.26354575157166]},{"componentType":5126,"type":"VEC3","bufferView":46,"byteOffset":0,"byteType":851,"count":7760},{"componentType":5126,"type":"VEC2","bufferView":47,"byteOffset":0,"byteType":1157,"count":7741},{"componentType":5123,"type":"SCALAR","bufferView":48,"byteOffset":0,"byteType":224,"count":3942},{"componentType":5126,"type":"VEC3","bufferView":49,"byteOffset":0,"byteType":1157,"count":1801,"min":[-0.855697393417358,-0.0898401588201523,-0.0918394327163696],"max":[0.855697393417358,0.089838370680809,0.0918432474136353]},{"componentType":5126,"type":"VEC3","bufferView":50,"byteOffset":0,"byteType":605,"count":1815},{"componentType":5126,"type":"VEC2","bufferView":51,"byteOffset":0,"byteType":867,"count":1800},{"componentType":5123,"type":"SCALAR","bufferView":52,"byteOffset":0,"byteType":1819,"count":3949},{"componentType":5126,"type":"VEC3","bufferView":53,"byteOffset":0,"byteType":1833,"count":2110,"min":[-0.855697453022003,-0.089838981628418,-0.0918393135070801],"max":[0.855697453022003,0.0898387432098389,0.0918432474136353]},{"componentType":5126,"type":"VEC3","bufferView":54,"byteOffset":0,"byteType":1736,"count":2140},{"componentType":5126,"type":"VEC2","bufferView":55,"byteOffset":0,"byteType":1397,"count":2114},{"componentType":5123,"type":"SCALAR","bufferView":56,"byteOffset":0,"byteType":433,"count":239},{"componentType":5126,"type":"VEC3","bufferView":57,"byteOffset":0,"byteType":689,"count":108,"min":[-0.26003497838974,-0.253253877162933,-0.011622067540884],"max":[0.260034888982773,-0.189717903733253,0.098626472055912]},{"componentType":5126,"type":"VEC3","bufferView":58,"byteOffset":0,"byteType":484,"count":131},{"componentType":5126,"type":"VEC2","bufferView":59,"byteOffset":0,"byteType":1073,"count":108}],"nodes":[{"name":"RootNode","translation":[0.0,0.0,0.0],"rotation":[0.0,0.0,0.0,1.0],"scale":[1.0,1.0,1.0],"children":[1]},{"name":"车体","translation":[0.0,0.0,-0.88701206445694],"rotation":[-0.70710676908493,0.0,0.0,0.70710676908493],"scale":[1.0,1.0,1.0],"children":[2,3,4],"mesh":0},{"name":"前轮","translation":[0.0,-0.830704510211945,0.37923526763916],"rotation":[0.0,0.0,0.0,1.0],"scale":[1.0,1.0,1.0],"mesh":1},{"name":"后轮","translation":[0.0,1.07198786735535,0.379235506057739],"rotation":[0.0,0.0,0.0,1.0],"scale":[1.0,1.0,1.0],"mesh":2},{"name":"叉子","translation":[8.89177940166519E-08,-1.32554161548615,0.489364266395569],"rotation":[-0.0436193756759167,0.0,0.0,0.999048233032227],"scale":[1.0,1.0,1.0],"children":[5],"mesh":3},{"name":"放物体基准点","translation":[-0.000724554061889648,-1.14859485626221,-0.281498491764069],"rotation":[0.0,0.0,0.0,1.0],"scale":[1.0,1.0,1.0]}],"animations":[{"name":"_起_","channels":[{"sampler":0,"target":{"node":4,"path":"translation"}}],"samplers":[{"input":0,"interpolation":"LINEAR","output":1}]},{"name":"_落_","channels":[{"sampler":0,"target":{"node":4,"path":"translation"}}],"samplers":[{"input":2,"interpolation":"LINEAR","output":3}]}],"asset":{"generator":"FBX2glTF","version":"2.0"},"scene":0,"scenes":[{"name":"Root Scene","nodes":[0]}],"samplers":[{}]}
