{"materials":[{"name":"Ground_Basecolor","pbrMetallicRoughness":{"baseColorTexture":{"index":0,"texCoord":0},"baseColorFactor":[1.0,1.0,1.0,1.0],"metallicFactor":0.099999994,"roughnessFactor":0.6},"alphaMode":"OPAQUE"}],"images":[{"uri":"PWT2WE3UNEW18E9W623TNQ3ZIIFZ02EZI.jpg"}],"textures":[{"name":"smd_1_f_png.jpg","sampler":0,"source":0}],"meshes":[{"name":"地板","primitives":[{"material":0,"mode":4,"indices":0,"attributes":{"NORMAL":2,"POSITION":1,"TEXCOORD_0":3}}]}],"buffers":[{"byteLength":2203,"uri":"DAJWEJUK5O6WV4OY7YJW0P176D8W6RU8V.bin"}],"bufferViews":[{"buffer":0,"target":34963,"byteLength":192,"byteOffset":0},{"buffer":0,"target":34962,"byteLength":312,"byteOffset":252},{"buffer":0,"target":34962,"byteLength":456,"byteOffset":564},{"buffer":0,"target":34962,"byteLength":208,"byteOffset":996}],"accessors":[{"componentType":5123,"type":"SCALAR","bufferView":0,"byteOffset":0,"byteType":693,"count":96},{"componentType":5126,"type":"VEC3","bufferView":1,"byteOffset":0,"byteType":571,"count":26,"min":[-36.5,-31.0000076293945,0.0],"max":[36.5240020751953,31.0000057220459,0.0]},{"componentType":5126,"type":"VEC3","bufferView":2,"byteOffset":0,"byteType":1710,"count":38},{"componentType":5126,"type":"VEC2","bufferView":3,"byteOffset":0,"byteType":1203,"count":26}],"nodes":[{"name":"RootNode","translation":[0.0,0.0,0.0],"rotation":[0.0,0.0,0.0,1.0],"scale":[1.0,1.0,1.0],"children":[1]},{"name":"地板","translation":[-0.114377498626709,3.57069075107574E-06,-1.9073486328125E-06],"rotation":[-0.70710676908493,0.0,0.0,0.70710676908493],"scale":[1.0,1.0,1.0],"mesh":0}],"asset":{"generator":"FBX2glTF","version":"2.0"},"scene":0,"scenes":[{"name":"Root Scene","nodes":[0]}],"samplers":[{}]}
