{"materials":[{"name":"Window_Basecolor_alpha","pbrMetallicRoughness":{"baseColorFactor":[0.203921571,0.203921571,0.203921571,0.9],"metallicFactor":0.099999994,"roughnessFactor":0.0},"alphaMode":"BLEND"},{"name":"Light_Basecolor","pbrMetallicRoughness":{"baseColorTexture":{"index":0,"texCoord":0},"baseColorFactor":[1.0,1.0,1.0,1.0],"metallicFactor":0.099999994,"roughnessFactor":0.0},"alphaMode":"OPAQUE","emissiveFactor":[0.2,0.2,0.2,1.0]},{"name":"Tyre01_Basecolor","pbrMetallicRoughness":{"baseColorTexture":{"index":1,"texCoord":0},"baseColorFactor":[1.0,1.0,1.0,1.0],"metallicFactor":0.099999994,"roughnessFactor":0.0},"alphaMode":"OPAQUE"},{"name":"Tyre02_Basecolor","pbrMetallicRoughness":{"baseColorTexture":{"index":2,"texCoord":0},"baseColorFactor":[1.0,1.0,1.0,1.0],"metallicFactor":0.099999994,"roughnessFactor":0.8},"alphaMode":"OPAQUE"},{"name":"Body_Basecolor","pbrMetallicRoughness":{"baseColorTexture":{"index":3,"texCoord":0},"baseColorFactor":[1.0,1.0,1.0,1.0],"metallicFactor":0.099999994,"roughnessFactor":0.6},"alphaMode":"OPAQUE"}],"images":[{"uri":"04H70WCENKIA68M9JSITW8RJU0DE1WO3T.jpg"},{"uri":"KM82CPQNV4EN7XO12MJHDQMA86CQD75JD.jpg"},{"uri":"UEQZWCZ02HYH4SCT7WIWWNIENVX10CD3U.jpg"},{"uri":"8YZD1E3H4CEWNWYON7OJZ8REN7PJJCRAJ.jpg"}],"textures":[{"name":"smd_1_f_png.jpg","sampler":0,"source":0},{"name":"smd_2_f_png.jpg","sampler":0,"source":1},{"name":"smd_3_f_png.jpg","sampler":0,"source":2},{"name":"smd_4_f_png.jpg","sampler":0,"source":3}],"meshes":[{"name":"车_窗户","primitives":[{"material":0,"mode":4,"indices":0,"attributes":{"COLOR_0":3,"NORMAL":2,"POSITION":1,"TEXCOORD_0":4}}]},{"name":"车_灯","primitives":[{"material":1,"mode":4,"indices":5,"attributes":{"COLOR_0":8,"NORMAL":7,"POSITION":6,"TEXCOORD_0":9}}]},{"name":"车_轮1","primitives":[{"material":2,"mode":4,"indices":10,"attributes":{"NORMAL":12,"POSITION":11,"TEXCOORD_0":13}},{"material":3,"mode":4,"indices":14,"attributes":{"NORMAL":16,"POSITION":15,"TEXCOORD_0":17}}]},{"name":"车_主体","primitives":[{"material":4,"mode":4,"indices":18,"attributes":{"COLOR_0":21,"NORMAL":20,"POSITION":19,"TEXCOORD_0":22}}]}],"buffers":[{"byteLength":342231,"uri":"CQU0W5J6QY77SHTT7OE9JVQW2NQ8D15AW.bin"}],"bufferViews":[{"buffer":0,"target":34963,"byteLength":1742,"byteOffset":0},{"buffer":0,"target":34962,"byteLength":2460,"byteOffset":1944},{"buffer":0,"target":34962,"byteLength":2832,"byteOffset":4404},{"buffer":0,"target":34962,"byteLength":3408,"byteOffset":7296},{"buffer":0,"target":34962,"byteLength":1856,"byteOffset":10704},{"buffer":0,"target":34963,"byteLength":5732,"byteOffset":12520},{"buffer":0,"target":34962,"byteLength":13284,"byteOffset":18252},{"buffer":0,"target":34962,"byteLength":13008,"byteOffset":31548},{"buffer":0,"target":34962,"byteLength":17584,"byteOffset":44556},{"buffer":0,"target":34962,"byteLength":8736,"byteOffset":62124},{"buffer":0,"target":34963,"byteLength":3752,"byteOffset":70860},{"buffer":0,"target":34962,"byteLength":7884,"byteOffset":74784},{"buffer":0,"target":34962,"byteLength":8184,"byteOffset":82668},{"buffer":0,"target":34962,"byteLength":5376,"byteOffset":90772},{"buffer":0,"target":34963,"byteLength":3206,"byteOffset":96148},{"buffer":0,"target":34962,"byteLength":10644,"byteOffset":99436},{"buffer":0,"target":34962,"byteLength":10992,"byteOffset":110080},{"buffer":0,"target":34962,"byteLength":6984,"byteOffset":120996},{"buffer":0,"target":34963,"byteLength":25838,"byteOffset":127980},{"buffer":0,"target":34962,"byteLength":46692,"byteOffset":153960},{"buffer":0,"target":34962,"byteLength":46884,"byteOffset":200652},{"buffer":0,"target":34962,"byteLength":62432,"byteOffset":247560},{"buffer":0,"target":34962,"byteLength":31344,"byteOffset":309992}],"accessors":[{"componentType":5123,"type":"SCALAR","bufferView":0,"byteOffset":0,"byteType":495,"count":871},{"componentType":5126,"type":"VEC3","bufferView":1,"byteOffset":0,"byteType":787,"count":205,"min":[-0.0264908019453287,-0.033960685133934,0.0152551475912333],"max":[0.0264850798994303,0.0651924759149551,0.0297442656010389]},{"componentType":5126,"type":"VEC3","bufferView":2,"byteOffset":0,"byteType":1113,"count":236},{"componentType":5126,"type":"VEC4","bufferView":3,"byteOffset":0,"byteType":301,"count":213},{"componentType":5126,"type":"VEC2","bufferView":4,"byteOffset":0,"byteType":570,"count":232},{"componentType":5123,"type":"SCALAR","bufferView":5,"byteOffset":0,"byteType":947,"count":2866},{"componentType":5126,"type":"VEC3","bufferView":6,"byteOffset":0,"byteType":1637,"count":1107,"min":[-0.027735473588109,-0.0650369748473167,-0.00934033468365669],"max":[0.0277297496795654,0.0677599906921387,0.0154921822249889]},{"componentType":5126,"type":"VEC3","bufferView":7,"byteOffset":0,"byteType":1319,"count":1084},{"componentType":5126,"type":"VEC4","bufferView":8,"byteOffset":0,"byteType":1228,"count":1099},{"componentType":5126,"type":"VEC2","bufferView":9,"byteOffset":0,"byteType":1651,"count":1092},{"componentType":5123,"type":"SCALAR","bufferView":10,"byteOffset":0,"byteType":336,"count":1876},{"componentType":5126,"type":"VEC3","bufferView":11,"byteOffset":0,"byteType":871,"count":657,"min":[-0.108660459518433,-0.26738229393959,-0.272632122039795],"max":[1.65761435031891,2.84533977508545,0.262984484434128]},{"componentType":5126,"type":"VEC3","bufferView":12,"byteOffset":0,"byteType":1425,"count":682},{"componentType":5126,"type":"VEC2","bufferView":13,"byteOffset":0,"byteType":693,"count":672},{"componentType":5123,"type":"SCALAR","bufferView":14,"byteOffset":0,"byteType":748,"count":1603},{"componentType":5126,"type":"VEC3","bufferView":15,"byteOffset":0,"byteType":1085,"count":887,"min":[-0.115492939949036,-0.343604743480682,-0.349327683448792],"max":[1.66444671154022,2.92155957221985,0.337963551282883]},{"componentType":5126,"type":"VEC3","bufferView":16,"byteOffset":0,"byteType":1327,"count":916},{"componentType":5126,"type":"VEC2","bufferView":17,"byteOffset":0,"byteType":415,"count":873},{"componentType":5123,"type":"SCALAR","bufferView":18,"byteOffset":0,"byteType":1833,"count":12919},{"componentType":5126,"type":"VEC3","bufferView":19,"byteOffset":0,"byteType":927,"count":3891,"min":[-0.0347944870591164,-0.0694323480129242,-0.00891145225614309],"max":[0.0347887203097343,0.070650041103363,0.0415252782404423]},{"componentType":5126,"type":"VEC3","bufferView":20,"byteOffset":0,"byteType":527,"count":3907},{"componentType":5126,"type":"VEC4","bufferView":21,"byteOffset":0,"byteType":257,"count":3902},{"componentType":5126,"type":"VEC2","bufferView":22,"byteOffset":0,"byteType":1943,"count":3918}],"nodes":[{"name":"RootNode","translation":[0.0,0.0,0.0],"rotation":[0.0,0.0,0.0,1.0],"scale":[1.0,1.0,1.0],"children":[1]},{"name":"Group003","translation":[0.0,0.0,0.0],"rotation":[-0.70710676908493,0.0,0.0,0.70710676908493],"scale":[1.0,1.0,1.0],"children":[2,3,4,5]},{"name":"车_窗户","translation":[8.7738037109375E-05,-0.0184860229492188,0.465714961290359],"rotation":[0.0,0.0,0.0,1.0],"scale":[30.3613586425781,30.3613586425781,30.3613586425781],"mesh":0},{"name":"车_灯","translation":[8.7738037109375E-05,-0.0184860229492188,0.465714961290359],"rotation":[0.0,0.0,0.0,1.0],"scale":[30.3613586425781,30.3613586425781,30.3613586425781],"mesh":1},{"name":"车_轮1","translation":[0.771446228027344,-1.21797943115234,0.341685235500336],"rotation":[6.12323360118135E-17,1.0,6.12323360118135E-17,7.54979012640433E-08],"scale":[1.0,1.0,1.0],"mesh":2},{"name":"车_主体","translation":[8.7738037109375E-05,-0.0184860229492188,0.465714961290359],"rotation":[0.0,0.0,0.0,1.0],"scale":[30.3613586425781,30.3613586425781,30.3613586425781],"mesh":3}],"asset":{"generator":"FBX2glTF","version":"2.0"},"scene":0,"scenes":[{"name":"Root Scene","nodes":[0]}],"samplers":[{}]}
