{"materials":[{"name":"Focus_Effect_Basecolor_alpha","pbrMetallicRoughness":{"baseColorTexture":{"index":0,"texCoord":0},"baseColorFactor":[1.0,1.0,1.0,1.0],"metallicFactor":0.099999994,"roughnessFactor":1},"alphaMode":"BLEND","emissiveFactor":[0.2,0.2,0.2,1.0]}],"images":[{"uri":"YHUNRHUVY110M1W00PFTKQZJU5OT1E1PS.png"}],"textures":[{"name":"smd_1.png","sampler":0,"source":0}],"meshes":[{"name":"扩散地面","primitives":[{"material":0,"mode":4,"indices":0,"attributes":{"COLOR_0":3,"NORMAL":2,"POSITION":1,"TEXCOORD_0":4}}]}],"buffers":[{"byteLength":1203,"uri":"O8WITUYURT71OWF6NGJY628N1QFDIXEU8.bin"}],"bufferViews":[{"buffer":0,"target":34963,"byteLength":18,"byteOffset":0},{"buffer":0,"target":34962,"byteLength":48,"byteOffset":60},{"buffer":0,"target":34962,"byteLength":168,"byteOffset":60},{"buffer":0,"target":34962,"byteLength":64,"byteOffset":284},{"buffer":0,"target":34962,"byteLength":136,"byteOffset":172}],"accessors":[{"componentType":5123,"type":"SCALAR","bufferView":0,"byteOffset":0,"byteType":325,"count":9},{"componentType":5126,"type":"VEC3","bufferView":1,"byteOffset":0,"byteType":1908,"count":4,"min":[-82.6501159667969,-77.9659118652344,0.0],"max":[82.6501159667969,77.9659118652344,0.0]},{"componentType":5126,"type":"VEC3","bufferView":2,"byteOffset":0,"byteType":1448,"count":14},{"componentType":5126,"type":"VEC4","bufferView":3,"byteOffset":0,"byteType":1660,"count":4},{"componentType":5126,"type":"VEC2","bufferView":4,"byteOffset":0,"byteType":1710,"count":17}],"nodes":[{"name":"RootNode","translation":[0.0,0.0,0.0],"rotation":[0.0,0.0,0.0,1.0],"scale":[1.0,1.0,1.0],"children":[1]},{"name":"扩散地面","translation":[0.0,-0.0399999991059303,-1.9073486328125E-06],"rotation":[-0.70710676908493,0.0,0.0,0.70710676908493],"scale":[1.0,1.0,1.0],"mesh":0}],"asset":{"generator":"FBX2glTF","version":"2.0"},"scene":0,"scenes":[{"name":"Root Scene","nodes":[0]}],"samplers":[{}]}
