{"materials":[{"name":"Gate_Basecolor","pbrMetallicRoughness":{"baseColorTexture":{"index":0,"texCoord":0},"baseColorFactor":[1.0,1.0,1.0,1.0],"metallicFactor":0,"roughnessFactor":1},"alphaMode":"OPAQUE"},{"name":"Wall_Basecolor","pbrMetallicRoughness":{"baseColorTexture":{"index":1,"texCoord":0},"baseColorFactor":[1.0,1.0,1.0,1.0],"metallicFactor":0.099999994,"roughnessFactor":0.0},"alphaMode":"OPAQUE"},{"name":"Material__0","pbrMetallicRoughness":{"baseColorTexture":{"index":2,"texCoord":0},"baseColorFactor":[1.0,1.0,1.0,1.0],"metallicFactor":0.75,"roughnessFactor":0.3},"alphaMode":"OPAQUE"},{"name":"Window_Basecolor_alpha","pbrMetallicRoughness":{"baseColorTexture":{"index":3,"texCoord":0},"baseColorFactor":[1.0,1.0,1.0,0.95],"metallicFactor":1.0,"roughnessFactor":0.0},"alphaMode":"BLEND"}],"images":[{"uri":"W51YKCE6WOQY1XJNVHPAT0T9Z1YFJWDOJ.jpg"},{"uri":"WYU8WY308CFWQ4O1QH4TZCI3P8TZ60TF6.jpg"},{"uri":"6MWDKM1YHVC8TW2U2VMUUCM7N8IONNITT.jpg"},{"uri":"12F6821HZ1PAWV2166X87SOHDW2QTCP96.jpg"}],"textures":[{"name":"smd_3_f_png.jpg","sampler":0,"source":0},{"name":"smd_1_f_png.jpg","sampler":0,"source":1},{"name":"smd_4.jpg","sampler":0,"source":2},{"name":"smd_2_f_png.jpg","sampler":0,"source":3}],"meshes":[{"name":"大门","primitives":[{"material":0,"mode":4,"indices":0,"attributes":{"NORMAL":2,"POSITION":1,"TEXCOORD_0":3}}]},{"name":"围墙","primitives":[{"material":1,"mode":4,"indices":4,"attributes":{"NORMAL":6,"POSITION":5,"TEXCOORD_0":7}}]},{"name":"边框","primitives":[{"material":2,"mode":4,"indices":8,"attributes":{"NORMAL":10,"POSITION":9,"TEXCOORD_0":11}}]},{"name":"窗户","primitives":[{"material":3,"mode":4,"indices":12,"attributes":{"NORMAL":14,"POSITION":13,"TEXCOORD_0":15}}]}],"buffers":[{"byteLength":32331,"uri":"W4JN2R127YU0VCH7SHIE6UPWJNIUT2ROD.bin"}],"bufferViews":[{"buffer":0,"target":34963,"byteLength":1228,"byteOffset":0},{"buffer":0,"target":34962,"byteLength":4176,"byteOffset":1308},{"buffer":0,"target":34962,"byteLength":4368,"byteOffset":5484},{"buffer":0,"target":34962,"byteLength":2784,"byteOffset":9820},{"buffer":0,"target":34963,"byteLength":1192,"byteOffset":12604},{"buffer":0,"target":34962,"byteLength":2520,"byteOffset":13876},{"buffer":0,"target":34962,"byteLength":2712,"byteOffset":16396},{"buffer":0,"target":34962,"byteLength":1680,"byteOffset":19076},{"buffer":0,"target":34963,"byteLength":880,"byteOffset":20756},{"buffer":0,"target":34962,"byteLength":3360,"byteOffset":21716},{"buffer":0,"target":34962,"byteLength":3552,"byteOffset":25076},{"buffer":0,"target":34962,"byteLength":2240,"byteOffset":28596},{"buffer":0,"target":34963,"byteLength":64,"byteOffset":30836},{"buffer":0,"target":34962,"byteLength":72,"byteOffset":30980},{"buffer":0,"target":34962,"byteLength":264,"byteOffset":31052},{"buffer":0,"target":34962,"byteLength":48,"byteOffset":31284}],"accessors":[{"componentType":5123,"type":"SCALAR","bufferView":0,"byteOffset":0,"byteType":906,"count":614},{"componentType":5126,"type":"VEC3","bufferView":1,"byteOffset":0,"byteType":611,"count":348,"min":[-10.4620037078857,-1.49179863929749,-3.79310202598572],"max":[10.4620037078857,1.49179673194885,3.79310178756714]},{"componentType":5126,"type":"VEC3","bufferView":2,"byteOffset":0,"byteType":1525,"count":364},{"componentType":5126,"type":"VEC2","bufferView":3,"byteOffset":0,"byteType":1997,"count":348},{"componentType":5123,"type":"SCALAR","bufferView":4,"byteOffset":0,"byteType":771,"count":596},{"componentType":5126,"type":"VEC3","bufferView":5,"byteOffset":0,"byteType":945,"count":210,"min":[-36.6620025634766,-31.1500053405762,0.0],"max":[36.6620025634766,31.1500072479248,1.93649923801422]},{"componentType":5126,"type":"VEC3","bufferView":6,"byteOffset":0,"byteType":715,"count":226},{"componentType":5126,"type":"VEC2","bufferView":7,"byteOffset":0,"byteType":329,"count":210},{"componentType":5123,"type":"SCALAR","bufferView":8,"byteOffset":0,"byteType":1968,"count":440},{"componentType":5126,"type":"VEC3","bufferView":9,"byteOffset":0,"byteType":1011,"count":280,"min":[-1.65424585342407,-1.11520195007324,-1.40577054023743],"max":[1.65424919128418,1.11520385742188,1.405766248703]},{"componentType":5126,"type":"VEC3","bufferView":10,"byteOffset":0,"byteType":463,"count":296},{"componentType":5126,"type":"VEC2","bufferView":11,"byteOffset":0,"byteType":1407,"count":280},{"componentType":5123,"type":"SCALAR","bufferView":12,"byteOffset":0,"byteType":1185,"count":32},{"componentType":5126,"type":"VEC3","bufferView":13,"byteOffset":0,"byteType":1107,"count":6,"min":[-1.60165691375732,-1.07083892822266,-1.36474323272705],"max":[1.60165691375732,1.07084083557129,1.36474299430847]},{"componentType":5126,"type":"VEC3","bufferView":14,"byteOffset":0,"byteType":1752,"count":22},{"componentType":5126,"type":"VEC2","bufferView":15,"byteOffset":0,"byteType":1283,"count":6}],"nodes":[{"name":"RootNode","translation":[0.0,0.0,0.0],"rotation":[0.0,0.0,0.0,1.0],"scale":[1.0,1.0,1.0],"children":[1,2,3,4]},{"name":"大门","translation":[20.8173751831055,3.79275321960449,42.9337043762207],"rotation":[-0.70710676908493,0.0,0.0,0.70710676908493],"scale":[1.0,1.0,1.0],"mesh":0},{"name":"围墙","translation":[2.24885559082031,0.0,11.7833938598633],"rotation":[-0.70710676908493,0.0,0.0,0.70710676908493],"scale":[1.0,1.0,1.0],"mesh":1},{"name":"边框","translation":[13.4741849899292,2.35874176025391,42.9509506225586],"rotation":[-0.70710676908493,0.0,0.0,0.70710676908493],"scale":[1.0,1.0,1.0],"mesh":2},{"name":"窗户","translation":[13.4777889251709,2.35856580734253,42.9491920471191],"rotation":[-0.70710676908493,0.0,0.0,0.70710676908493],"scale":[1.0,1.0,1.0],"mesh":3}],"asset":{"generator":"FBX2glTF","version":"2.0"},"scene":0,"scenes":[{"name":"Root Scene","nodes":[0]}],"samplers":[{}]}
